<svg xmlns="http://www.w3.org/2000/svg" viewBox="0 0 1440 320">
	<path fill="#05448E" fill-opacity="1"
					d="M 0 234.933 C 480 288 549 288 617 272 C 685.7 256 754 224 823 181.3 C 891.4 139 960 85 1029 80 C 1097.1 75 1166 117 1234 144 C 1302.9 171 1371 181 1406 186.7 L 1440 192 L 1440 320 L 1405.7 320 C 1371.4 320 1303 320 1234 320 C 1165.7 320 1097 320 1029 320 C 960 320 891 320 823 320 C 754.3 320 686 320 617 320 C 548.6 320 480 320 411 320 C 342.9 320 274 320 206 320 C 137.1 320 69 320 34 320 L 0 320 Z">
	</path>
</svg>