<svg width="328" height="247" viewBox="0 0 328 247" fill="none" xmlns="http://www.w3.org/2000/svg">
<path d="M142.212 64.4467C131.961 27.2068 85.7647 15.2102 59.2898 43.0417C58.9093 43.4412 58.5302 43.8478 58.1503 44.261C20.1948 85.5776 38.1253 187.394 117.337 213.2C196.549 239.007 278.94 191.882 283.569 149.756C288.198 107.63 251.653 94.3934 194.94 106.173C162.898 112.828 148.594 87.6292 142.212 64.4467Z" fill="#BBE2F2"/>
<path d="M208.106 70.8161C197.508 72.5437 194.571 81.9468 202.754 88.6171C205.459 90.8218 209.321 92.6539 214.824 93.5677C235.785 97.05 246.909 87.7625 238.507 75.7212C233.321 68.2896 218.609 69.1041 208.106 70.8161Z" fill="#BBE2F2"/>
<path d="M39.1205 146.062C32.5316 137.572 22.8819 139.491 20.9513 149.879C20.313 153.313 20.5564 157.585 22.3892 162.861C29.3717 182.957 42.8394 188.291 49.3738 175.138C53.4075 167.021 45.6503 154.476 39.1205 146.062Z" fill="#BBE2F2"/>
<path d="M291.04 154.652C290.063 159.77 294.283 163.395 299.066 161.423C300.646 160.771 302.241 159.514 303.659 157.304C309.062 148.887 306.326 141.668 298.803 142.409C294.16 142.867 292.007 149.58 291.04 154.652Z" fill="#BBE2F2"/>
<path d="M264.247 100.642C269.34 101.707 273.032 97.5425 271.144 92.7214C270.52 91.1277 269.292 89.5097 267.111 88.0521C258.799 82.4992 251.543 85.1156 252.155 92.661C252.533 97.3172 259.199 99.5868 264.247 100.642Z" fill="#BBE2F2"/>
<path d="M140.442 45.8726C144.476 49.1651 149.666 47.17 150.206 42.0192C150.385 40.3171 150.038 38.3148 148.771 36.015C143.943 27.2543 136.3 26.2342 133.375 33.2145C131.571 37.5232 136.446 42.6097 140.442 45.8726Z" fill="#BBE2F2"/>
<path d="M303.668 180.256C311.756 172.114 317.915 162.913 311.788 161.479C305.655 160.043 295.356 176.077 293.561 190.672L291.765 195.49C293.258 184.877 289.627 171.949 284.309 171.416C279.026 170.887 282.224 179.272 286.42 186.444C289.614 191.903 290.457 196.21 290.666 198.435L282.183 221.193C284.5 204.379 278.747 183.98 270.334 183.137C261.951 182.297 267.025 195.603 273.683 206.982C278.714 215.581 280.069 222.382 280.415 225.936L278.723 230.474C279.463 230.891 280.205 231.303 280.95 231.711L291.042 204.636C292.989 203.18 295.946 201.421 300.156 199.995C308.018 197.331 315.921 193.095 311.584 190.028C307.82 187.366 298.97 192.49 292.875 199.72L296.365 190.357C297.939 187.646 300.178 183.77 303.668 180.256Z" fill="#1C31B5"/>
<path d="M48.7226 74.0342C49.7715 64.2008 48.9548 54.6966 44.0676 57.0405C39.1758 59.387 40.8906 75.7152 47.5411 86.4854L48.9286 90.6909C44.2185 82.7574 34.8206 76.0358 30.9633 78.5479C27.1303 81.0441 33.792 84.9495 40.4701 87.5003C45.5541 89.4421 48.4372 91.8799 49.7768 93.2614L56.3302 113.125C48.8354 100.582 33.9908 89.9887 27.8874 93.9637C21.8056 97.9249 32.375 104.122 42.9721 108.169C50.9799 111.228 55.5509 115.064 57.696 117.264L59.0027 121.225C59.7243 121.106 60.4446 120.983 61.1643 120.854L53.3677 97.2233C53.8919 95.1947 54.9303 92.4173 56.9895 89.1873C60.8363 83.1541 63.8631 76.0437 59.2993 76.3249C55.3383 76.5692 52.1535 84.7872 51.9521 92.933L49.2559 84.761C48.8531 82.0899 48.2699 78.2785 48.7226 74.0342Z" fill="#1C31B5"/>
<path d="M249.073 207.302C249.176 207.86 249.294 208.468 249.434 209.114V209.116C250.89 215.896 254.465 226.995 262.51 229.178C262.51 229.178 258.131 206.315 273.737 200.36C289.343 194.405 287.617 188.735 286.725 178.643C285.833 168.551 282.384 166.627 293.213 157.173C304.042 147.72 301.971 133.639 301.971 133.639C301.971 133.639 291.723 149.716 280.777 150.089C269.832 150.462 267.914 159.819 268.381 166.778C268.848 173.736 259.552 174.523 254.522 178.559C249.492 182.595 248.545 203.79 248.545 203.79C248.545 203.79 248.684 205.176 249.073 207.302Z" fill="#009CF8"/>
<path d="M249.073 207.303C249.176 207.86 249.294 208.468 249.434 209.114C250.556 205.712 252.134 202.855 253.612 200.662C257.113 195.468 262.043 191.201 266.477 189.526C273.537 186.863 276.985 179.928 277.653 167.042C278.04 159.562 285.855 155.144 285.935 155.1C286.163 154.973 286.246 154.684 286.12 154.456C285.993 154.226 285.704 154.142 285.476 154.269C285.135 154.458 277.121 158.98 276.706 166.992C276.061 179.449 272.803 186.126 266.143 188.64C261.465 190.405 256.486 194.7 252.826 200.13C251.533 202.049 250.164 204.465 249.073 207.303Z" fill="#006BDE"/>
<path d="M76.3309 229.055H87.2973C81.3716 228.074 66.6805 221.758 65.3705 209.094C63.7114 193.052 58.0069 193.253 48.3958 191.576C38.7841 189.898 36.1365 192.637 30.0337 180.183C23.931 167.73 10.3157 166.16 10.3157 166.16C10.3157 166.16 22.7252 179.72 20.3505 190.024C17.9758 200.329 26.2047 204.444 32.7948 205.739C39.385 207.034 37.8054 215.902 40.3093 221.599C41.4521 224.199 46.13 226.893 50.8781 229.055H76.3309Z" fill="#006BDE"/>
<path d="M52.5779 213.263C53.0568 218.067 55.8152 223.78 59.9566 228.545C60.1022 228.712 60.2537 228.883 60.4085 229.053H61.6563C61.2994 228.677 60.9609 228.305 60.6467 227.943C56.6851 223.386 53.941 217.725 53.4858 213.172C52.7629 205.923 47.1692 200.981 35.3454 197.154C28.4823 194.933 26.3149 186.543 26.2952 186.457C26.2342 186.213 25.9856 186.063 25.7416 186.124C25.4962 186.185 25.3467 186.433 25.4077 186.678C25.4982 187.043 27.7129 195.645 35.0633 198.024C46.4928 201.725 51.895 206.425 52.5779 213.263Z" fill="#1C31B5"/>
<path d="M82.2453 199.284C82.0131 200.063 81.75 200.912 81.4529 201.813L81.4522 201.815C78.3342 211.264 71.9382 227.178 60.1269 229.054C60.1269 229.054 69.475 196.481 48.1254 185.583C26.7759 174.686 30.1084 166.863 32.9305 152.603C35.752 138.344 40.9672 136.129 26.9707 120.976C12.9743 105.823 18.0905 86.0547 18.0905 86.0547C18.0905 86.0547 30.2422 110.567 45.7993 112.785C61.3569 115.002 62.6552 128.646 60.9214 138.501C59.1876 148.356 72.3279 150.909 78.884 157.441C85.44 163.973 83.5383 194.354 83.5383 194.354C83.5383 194.354 83.127 196.309 82.2453 199.284Z" fill="#009CF8"/>
<path d="M82.2454 199.284C82.0132 200.063 81.7501 200.912 81.453 201.813C80.3745 196.787 78.5607 192.467 76.7895 189.112C72.593 181.163 66.2147 174.317 60.1467 171.246C50.4839 166.359 46.6305 155.936 47.6552 137.45C48.2515 126.72 37.7817 119.213 37.6735 119.14C37.3671 118.924 37.2924 118.499 37.5082 118.192C37.7247 117.884 38.1491 117.809 38.4555 118.025C38.9127 118.346 49.6514 126.031 49.0138 137.525C48.0219 155.395 51.6443 165.422 60.7588 170.033C67.162 173.272 73.6052 180.166 77.9926 188.475C79.5427 191.411 81.1256 195.068 82.2454 199.284Z" fill="#006BDE"/>
<path d="M90.7137 221.393C90.7497 223.87 90.7944 226.447 90.8488 229.053H114.701C114.746 226.2 114.781 223.466 114.807 220.901C114.879 213.949 114.887 208.228 114.881 204.672C114.879 202.149 114.868 200.719 114.868 200.719L90.5464 200.461C90.5464 200.461 90.5464 202.565 90.5648 206.007C90.5805 209.831 90.6231 215.307 90.7137 221.393Z" fill="#18315B"/>
<path d="M90.5647 206.006C90.5804 209.831 90.6231 215.307 90.7136 221.394C98.2064 221.966 106.42 221.972 114.807 220.901C114.879 213.949 114.887 208.228 114.882 204.672L90.5647 206.006Z" fill="#000B29"/>
<path d="M60.6539 215.902C60.6808 219.795 60.7268 224.255 60.8042 229.054H84.6583C84.7173 226.244 84.7646 223.468 84.8033 220.816C84.8859 215.124 84.9286 209.999 84.9496 206.315C84.9679 202.69 84.9679 200.461 84.9679 200.461L60.6349 200.719C60.6349 200.719 60.6165 203.303 60.6218 207.65C60.6224 209.948 60.633 212.737 60.6539 215.902Z" fill="#18315B"/>
<path d="M60.6226 207.65C60.6226 209.948 60.6331 212.737 60.6547 215.902C65.4986 217.332 74.1696 219.556 84.804 220.816C84.8867 215.124 84.9293 209.999 84.9503 206.315L60.6226 207.65Z" fill="#000B29"/>
<path d="M100.608 72.3139C100.608 72.3139 104.441 68.6174 104.429 64.967C104.416 61.3165 101.938 62.3951 100.608 58.9936C99.2784 55.5921 95.3273 53.5176 93.1605 53.9328C90.9937 54.3479 86.4188 45.8849 80.2144 47.3781C74.0093 48.8712 74.5491 56.8363 71.8766 57.9977C69.2041 59.1592 69.9493 63.8883 71.3584 64.967C72.7668 66.0456 73.3631 70.3799 74.1555 70.2821C74.9473 70.1842 100.608 72.3139 100.608 72.3139Z" fill="#18315B"/>
<path d="M74.8109 72.2268C74.8109 72.2268 72.4007 69.0092 70.6092 71.6697C68.817 74.3302 71.3505 82.1882 75.7378 80.27L74.8109 72.2268Z" fill="#F97853"/>
<path d="M74.78 77.8419C74.6179 77.8419 74.469 77.7348 74.4231 77.5705C73.7435 75.1446 71.233 74.1612 71.2081 74.1513C71.0172 74.0784 70.9207 73.8642 70.9935 73.6724C71.0657 73.4806 71.2802 73.384 71.4711 73.4569C71.5885 73.501 74.3542 74.5763 75.1375 77.3702C75.1926 77.5679 75.0778 77.7722 74.881 77.8281C74.8469 77.8373 74.8128 77.8419 74.78 77.8419Z" fill="#EA5143"/>
<path d="M72.2465 76.6197C72.1776 76.6197 72.108 76.6007 72.0464 76.5606C71.8745 76.4496 71.8247 76.2197 71.9355 76.0476C71.9539 76.0187 72.398 75.3407 73.3269 74.9242C73.5125 74.8401 73.733 74.9242 73.8163 75.1115C73.8996 75.2987 73.8163 75.5181 73.6293 75.6015C72.911 75.9234 72.562 76.4443 72.5587 76.4489C72.4872 76.56 72.3678 76.6197 72.2465 76.6197Z" fill="#EA5143"/>
<path d="M99.6457 72.2268C99.6457 72.2268 102.055 69.0092 103.847 71.6697C105.639 74.3302 103.106 82.1882 98.7188 80.27L99.6457 72.2268Z" fill="#F97853"/>
<path d="M99.6765 77.8419C99.8385 77.8419 99.9874 77.7348 100.033 77.5705C100.713 75.1446 103.223 74.1612 103.248 74.1513C103.439 74.0784 103.536 73.8642 103.463 73.6724C103.39 73.4806 103.176 73.384 102.985 73.4569C102.868 73.501 100.102 74.5763 99.319 77.3702C99.2639 77.5679 99.3787 77.7722 99.5761 77.8281C99.6096 77.8373 99.6437 77.8419 99.6765 77.8419Z" fill="#EA5143"/>
<path d="M102.21 76.6197C102.279 76.6197 102.348 76.6007 102.41 76.5606C102.583 76.4496 102.632 76.2197 102.521 76.0476C102.503 76.0187 102.058 75.3407 101.13 74.9242C100.944 74.8401 100.723 74.9242 100.639 75.1115C100.556 75.2987 100.639 75.5181 100.826 75.6015C101.545 75.9234 101.894 76.4443 101.897 76.4489C101.969 76.56 102.088 76.6197 102.21 76.6197Z" fill="#EA5143"/>
<path d="M93.1605 86.9355V94.7502C93.1605 94.7502 90.833 98.7304 87.6862 99.0011C84.542 99.2757 81.748 95.5746 81.748 95.5746V87.4854L93.1605 86.9355Z" fill="#FFA681"/>
<path d="M93.1604 86.9355V90.4034C91.0487 92.7505 87.2977 93.3365 81.7473 92.516V87.4854L93.1604 86.9355Z" fill="#F97853"/>
<path d="M101.388 66.8658C101.244 69.9027 100.954 73.7003 100.376 76.7372C100.231 77.4947 100.068 78.2074 99.8864 78.8459C98.2437 84.6038 94.1365 94.4792 82.6362 90.3656C77.5568 88.5505 75.2031 82.8853 74.1535 77.1229C73.4417 73.2096 73.3341 69.2563 73.3859 66.4309C73.4417 63.5464 75.0135 60.9102 77.5194 59.4886C84.3077 55.6352 91.4705 57.0718 96.1859 58.8869C99.46 60.1462 101.555 63.3651 101.388 66.8658Z" fill="#FFA681"/>
<path d="M74.1543 77.1227C74.1543 77.1227 75.2702 83.7805 76.3243 86.2078C77.3805 88.6344 80.2597 89.0923 81.3408 91.1432C82.883 94.0678 85.2341 96.386 89.1013 94.9737C92.3189 93.7984 92.1733 92.1509 93.976 90.8765C97.0644 88.6929 98.5949 86.2899 98.7195 84.2988C98.8435 82.3077 100.377 76.737 100.377 76.737L98.7195 76.6201C98.7195 76.6201 97.7749 78.579 96.3855 80.737C94.9908 77.6705 88.2727 79.9008 88.2727 79.9008L86.9903 80.3166L85.673 79.9008C85.673 79.9008 78.8749 77.7651 77.5327 80.9807C76.7101 79.7214 76.0416 78.3051 75.7379 76.8041L74.1543 77.1227ZM86.9896 81.3538C94.695 80.0295 93.318 84.5471 93.2682 84.7094V84.712C93.2655 84.7146 93.2655 84.7146 93.2655 84.7146C92.7434 85.2126 92.2114 85.6304 91.682 85.9168C88.6965 87.5321 88.3738 87.2884 87.1956 87.3403C85.9977 87.3975 84.3446 87.0414 82.6672 86.1033C82.145 85.8097 81.365 85.2421 80.5096 84.4604C80.5103 84.4597 79.2993 80.3159 86.9896 81.3538Z" fill="#18315B"/>
<path d="M81.3997 74.7558C81.9294 74.7558 82.3588 74.0797 82.3588 73.2456C82.3588 72.4115 81.9294 71.7354 81.3997 71.7354C80.8701 71.7354 80.4407 72.4115 80.4407 73.2456C80.4407 74.0797 80.8701 74.7558 81.3997 74.7558Z" fill="#18315B"/>
<path d="M92.7996 74.7558C93.3293 74.7558 93.7587 74.0797 93.7587 73.2456C93.7587 72.4115 93.3293 71.7354 92.7996 71.7354C92.27 71.7354 91.8406 72.4115 91.8406 73.2456C91.8406 74.0797 92.27 74.7558 92.7996 74.7558Z" fill="#18315B"/>
<path d="M96.5743 68.2728C96.5743 68.2728 92.6114 66.7048 89.5603 68.0245L89.8653 69.724C89.8653 69.724 94.3432 69.3449 96.5998 70.26C96.8025 69.6057 96.8321 68.9449 96.5743 68.2728Z" fill="#18315B"/>
<path d="M77.7333 68.2807C77.7333 68.2807 81.725 66.7008 84.7984 68.0304L84.4907 69.7423C84.4907 69.7423 79.9794 69.36 77.7064 70.2823C77.5037 69.6234 77.4735 68.9573 77.7333 68.2807Z" fill="#18315B"/>
<path d="M87.3569 79.5766C87.9821 79.5766 88.6027 79.3329 88.6991 79.2935C88.8887 79.216 88.9792 78.9992 88.9018 78.81C88.8251 78.6202 88.6079 78.5289 88.419 78.6064C88.0844 78.7424 87.2802 78.9559 86.9319 78.747C86.8643 78.7069 86.7731 78.6267 86.7495 78.4014C86.6157 77.1047 86.9699 72.7592 86.9738 72.7158C86.9909 72.5115 86.8387 72.3322 86.6347 72.3158C86.43 72.2987 86.2516 72.4511 86.2352 72.6554C86.2201 72.8367 85.8718 77.1139 86.0128 78.4783C86.0659 78.992 86.3349 79.2548 86.552 79.3848C86.7882 79.5261 87.0735 79.5766 87.3569 79.5766Z" fill="#F97853"/>
<path d="M82.6311 82.0967C82.9125 83.515 83.848 86.1236 86.9994 86.1236C90.1587 86.1236 91.0443 83.7396 91.3487 82.0967H82.6311Z" fill="white"/>
<path d="M101.388 66.8655C101.244 69.9024 100.954 73.7 100.376 76.7369L98.7188 76.6193C98.7188 76.6193 99.1203 74.0554 99.306 72.3842C99.4916 70.7137 99.8065 67.5907 98.3823 67.2012C96.9621 66.8149 97.7958 63.2524 95.82 61.708C93.8441 60.1597 89.4541 58.7972 86.5402 60.5946C83.6262 62.3879 80.3115 61.3967 78.97 61.708C77.6245 62.0161 75.8002 63.8726 76.2935 65.6062C76.7901 67.3358 75.3075 68.3908 74.948 70.1835C74.5885 71.9769 75.7378 76.8026 75.7378 76.8026L74.1549 77.1219C73.4432 73.2086 73.3356 69.2553 73.3874 66.4299C73.4432 63.5454 75.0149 60.9092 77.5209 59.4877C84.3091 55.6342 91.472 57.0709 96.1873 58.8859C99.4601 60.1459 101.555 63.3648 101.388 66.8655Z" fill="#18315B"/>
<path d="M119.908 212.462C112.407 214.365 104.906 215.595 97.399 216.161C97.0585 216.186 96.7213 216.211 96.3808 216.234C95.349 216.304 94.3171 216.362 93.2858 216.407C88.1802 216.627 83.0732 216.541 77.9656 216.146C76.9357 216.067 75.9071 215.976 74.8772 215.87C74.5485 215.838 74.2192 215.803 73.8886 215.765C67.7911 215.103 61.6949 214 55.5921 212.462C55.5311 206.833 55.6006 189.036 55.9457 169.736C55.9857 167.416 56.0303 165.075 56.0815 162.731C56.622 137.294 57.665 111.474 59.5419 108.888C61.3406 106.413 66.7625 103.267 71.9455 100.429C72.2545 100.26 72.5641 100.091 72.8711 99.9237C74.0368 99.2898 75.1757 98.6755 76.2476 98.0922C78.5442 96.8408 80.5247 95.728 81.7481 94.8687V95.5756C81.7481 95.5756 84.5387 99.2746 87.6836 99.0014C90.5503 98.755 92.7328 95.4383 93.1035 94.8438C94.4562 95.7976 96.8847 97.1121 99.7002 98.602C100.484 99.0178 101.294 99.4428 102.121 99.8816C102.425 100.042 102.731 100.204 103.039 100.368C108.771 103.413 114.951 106.846 116.806 109.397C116.945 109.586 117.077 109.902 117.203 110.336C118.301 114.058 118.982 126.409 119.397 141.366C119.399 141.42 119.4 141.474 119.402 141.529C119.42 142.133 119.435 142.742 119.45 143.355C119.453 143.434 119.454 143.516 119.456 143.597C119.592 148.843 119.694 154.367 119.774 159.917C119.78 160.357 119.789 160.798 119.793 161.238C119.795 161.46 119.799 161.678 119.8 161.9C119.818 162.993 119.83 164.086 119.84 165.174C119.852 165.976 119.862 166.778 119.868 167.581C120.076 187.642 119.991 206.565 119.908 212.462Z" fill="#006BDE"/>
<path d="M119.45 143.356C117.645 140.403 115.707 137.39 113.882 134.724C113.876 134.718 113.872 134.711 113.868 134.705C113.102 133.585 112.356 132.529 111.647 131.564C111.635 131.545 111.624 131.529 111.61 131.514C111.389 131.211 111.169 130.916 110.954 130.63C110.919 130.58 110.893 130.529 110.876 130.474L110.874 130.472C110.817 130.278 110.881 130.063 111.052 129.934C111.271 129.767 111.584 129.81 111.75 130.03C113.942 132.939 116.746 137.121 119.398 141.366C119.4 141.42 119.401 141.474 119.403 141.529C119.421 142.134 119.435 142.743 119.45 143.356Z" fill="#264CBE"/>
<path d="M116.884 108.987C116.884 108.987 128.196 129.742 135.092 140.261C135.092 140.261 139.014 136.653 144.114 131.827C149.644 126.594 157.207 117.848 157.207 117.848L161.393 122.819C161.393 122.819 144.4 153.441 136.778 157.29C129.156 161.138 115.111 133.898 115.111 133.898L116.884 108.987Z" fill="#006BDE"/>
<path d="M68.985 190.787C68.9785 190.787 68.9726 190.787 68.9667 190.787C68.6846 190.777 68.4635 190.539 68.4734 190.256C69.0664 173.495 60.3875 168.065 60.2996 168.012C60.0582 167.866 59.9788 167.551 60.1238 167.309C60.2688 167.067 60.5817 166.987 60.8244 167.132C60.9208 167.189 63.2155 168.585 65.4374 172.162C67.4657 175.427 69.8169 181.223 69.4954 190.292C69.4862 190.568 69.2593 190.787 68.985 190.787Z" fill="#264CBE"/>
<path d="M106.012 174.995C105.747 174.995 105.523 174.792 105.502 174.523C105.227 170.993 106.388 168.419 107.858 165.159C108.289 164.206 108.733 163.22 109.188 162.115C112.041 155.186 110.607 147.264 110.593 147.185C110.541 146.907 110.723 146.639 111.001 146.587C111.279 146.535 111.546 146.718 111.598 146.996C111.661 147.332 113.101 155.298 110.134 162.505C109.672 163.627 109.224 164.62 108.79 165.582C107.326 168.83 106.267 171.176 106.522 174.444C106.544 174.726 106.333 174.973 106.052 174.995C106.039 174.995 106.025 174.995 106.012 174.995Z" fill="#264CBE"/>
<path d="M76.2476 98.0925C76.466 99.7427 76.7868 101.884 77.1371 104.315C77.244 105.037 77.3509 105.786 77.4605 106.555C77.8161 109.066 78.1841 111.799 78.497 114.562C78.5816 115.304 78.661 116.048 78.7358 116.79C79.0119 119.525 79.2205 122.243 79.2953 124.769C79.3203 125.533 79.3301 126.28 79.3255 127.005C79.3203 128.933 79.2133 130.706 78.9798 132.222C78.8302 133.18 78.699 134.116 78.5823 135.032C78.4852 135.792 78.3986 136.538 78.3212 137.272C78.0227 140.123 77.8738 142.776 77.8318 145.277C77.8193 146.036 77.8167 146.78 77.8246 147.51C77.8469 150.349 78.0083 152.995 78.2418 155.514C78.3113 156.268 78.3881 157.01 78.4681 157.742C78.7738 160.495 79.1464 163.115 79.4974 165.707C79.5991 166.448 79.6988 167.187 79.7959 167.927C79.9474 169.112 80.0917 170.297 80.2157 171.489C80.3476 172.754 80.4322 174.232 80.4715 175.872C80.4912 176.589 80.5011 177.338 80.5037 178.112C80.5135 180.564 80.4512 183.279 80.3371 186.119C80.3075 186.861 80.2747 187.612 80.238 188.372C80.1114 191.01 79.9448 193.723 79.7585 196.401C79.704 197.155 79.6489 197.905 79.5918 198.651C79.3852 201.439 79.1569 204.155 78.9253 206.681C78.8558 207.447 78.7863 208.197 78.7167 208.923C78.4504 211.703 78.1926 214.175 77.9663 216.147C83.0739 216.54 88.1822 216.627 93.2871 216.406C93.4065 214.307 93.7319 210.922 94.0527 206.937C94.1124 206.208 94.1695 205.457 94.2265 204.69C94.4181 202.156 94.5919 199.449 94.7061 196.715C94.7382 195.966 94.7658 195.214 94.7854 194.465C94.8629 191.737 94.8648 189.027 94.7481 186.486C94.7133 185.714 94.6687 184.96 94.609 184.226C94.5493 183.474 94.4771 182.743 94.3905 182.036C94.1445 180.039 94.0501 178.123 94.0625 176.227C94.0652 175.475 94.0848 174.728 94.1196 173.979C94.2364 171.381 94.5198 168.777 94.8478 166.012C94.935 165.278 95.0269 164.531 95.1187 163.77C95.4146 161.311 95.7229 158.702 95.9662 155.847C96.0305 155.115 96.0883 154.366 96.1427 153.6C96.312 151.151 96.4261 148.52 96.4438 145.653C96.4484 144.913 96.4464 144.159 96.4366 143.387C96.409 140.906 96.3047 138.25 96.1034 135.39C96.0856 135.137 96.0686 134.88 96.0489 134.621C96.0115 134.12 95.9794 133.615 95.9571 133.11C95.8252 130.501 95.86 127.819 96.0069 125.143C96.0469 124.391 96.0961 123.64 96.1539 122.888C96.3598 120.21 96.6609 117.556 97.0086 115.013C97.1103 114.256 97.2172 113.507 97.3268 112.77C97.7447 109.982 98.194 107.359 98.6066 105.014C98.7438 104.243 98.875 103.501 98.9996 102.794C99.2804 101.211 99.5237 99.7998 99.7028 98.6049C96.8866 97.1137 94.4581 95.7999 93.1061 94.8467C92.7354 95.4418 90.5536 98.7566 87.6849 99.0036C84.5407 99.2776 81.7494 95.5785 81.7494 95.5785V94.8716C80.5247 95.7283 78.5442 96.8411 76.2476 98.0925Z" fill="white"/>
<path d="M77.1372 104.316C77.2441 105.038 77.3511 105.787 77.4606 106.556C80.2821 106.62 83.5949 106.197 87.5866 105.274C91.8618 104.289 95.6325 104.46 98.6048 105.013C98.7419 104.242 98.8731 103.499 98.9977 102.792C95.7768 102.197 91.7129 102.026 87.0848 103.093C83.1449 104.002 79.8635 104.42 77.1372 104.316Z" fill="#E3E3E3"/>
<path d="M78.4971 114.563C78.5817 115.305 78.6611 116.049 78.7359 116.791C81.2687 116.724 84.182 116.3 87.5873 115.511C91.1244 114.695 94.3204 114.675 97.0074 115.011C97.1091 114.254 97.216 113.505 97.3256 112.768C94.4123 112.407 90.9453 112.437 87.0854 113.328C83.7785 114.093 80.9354 114.511 78.4971 114.563Z" fill="#E3E3E3"/>
<path d="M79.2947 124.77C79.3196 125.534 79.3294 126.281 79.3249 127.006C81.7186 126.894 84.443 126.476 87.5865 125.749C90.6933 125.032 93.5371 124.929 96.005 125.142C96.045 124.39 96.0942 123.639 96.1519 122.886C93.4971 122.668 90.4375 122.792 87.0847 123.566C84.134 124.248 81.5513 124.654 79.2947 124.77Z" fill="#E3E3E3"/>
<path d="M78.3206 137.273C80.9505 137.243 83.9923 136.815 87.5865 135.986C90.7334 135.259 93.6113 135.165 96.1021 135.389C96.0844 135.135 96.0673 134.878 96.0476 134.619C96.0102 134.119 95.9781 133.614 95.9558 133.108C93.3462 132.912 90.3562 133.046 87.0847 133.803C83.8165 134.56 81.0023 134.973 78.5816 135.033C78.4846 135.792 78.3973 136.539 78.3206 137.273Z" fill="#E3E3E3"/>
<path d="M77.8233 147.51C80.5647 147.532 83.764 147.107 87.5865 146.223C90.8849 145.462 93.8802 145.389 96.4425 145.651C96.4471 144.912 96.4452 144.158 96.4353 143.386C93.7162 143.134 90.5595 143.239 87.0847 144.04C83.4734 144.874 80.4158 145.295 77.8311 145.277C77.818 146.037 77.8154 146.781 77.8233 147.51Z" fill="#E3E3E3"/>
<path d="M78.2405 155.515C78.31 156.269 78.3868 157.01 78.4668 157.742C81.0619 157.7 84.0592 157.274 87.5865 156.461C90.6809 155.746 93.5122 155.637 95.9656 155.846C96.0299 155.114 96.0876 154.365 96.1421 153.598C93.4872 153.38 90.4329 153.504 87.0847 154.278C83.6643 155.067 80.7366 155.487 78.2405 155.515Z" fill="#E3E3E3"/>
<path d="M79.4961 165.707C79.5978 166.449 79.6975 167.188 79.7946 167.928C82.0742 167.786 84.6437 167.378 87.5865 166.698C90.221 166.088 92.6647 165.922 94.8472 166.011C94.9344 165.276 95.0263 164.53 95.1181 163.768C92.7119 163.659 90.0105 163.838 87.0847 164.515C84.2186 165.175 81.7029 165.578 79.4961 165.707Z" fill="#E3E3E3"/>
<path d="M80.4702 175.872C80.4899 176.589 80.4997 177.338 80.5024 178.112C82.6029 177.935 84.9468 177.545 87.5858 176.932C89.9101 176.397 92.0847 176.203 94.0606 176.225C94.0632 175.474 94.0829 174.727 94.1176 173.978C91.9725 173.956 89.6116 174.167 87.0834 174.752C84.6338 175.318 82.4362 175.693 80.4702 175.872Z" fill="#E3E3E3"/>
<path d="M80.2368 188.372C82.4042 188.205 84.8328 187.804 87.5866 187.17C90.1792 186.573 92.588 186.401 94.7475 186.485C94.7128 185.713 94.6682 184.959 94.6085 184.226C92.3341 184.161 89.8066 184.36 87.0848 184.987C84.5769 185.567 82.3373 185.948 80.3365 186.119C80.3064 186.862 80.2742 187.613 80.2368 188.372Z" fill="#E3E3E3"/>
<path d="M79.5906 198.652C81.9194 198.52 84.5565 198.107 87.5866 197.408C90.164 196.813 92.5577 196.638 94.7055 196.716C94.7376 195.967 94.7652 195.215 94.7848 194.466C92.4659 194.387 89.8786 194.58 87.0847 195.225C84.3335 195.863 81.9023 196.258 79.7572 196.403C79.7021 197.156 79.6476 197.905 79.5906 198.652Z" fill="#E3E3E3"/>
<path d="M78.7156 208.924C81.2536 208.86 84.1715 208.434 87.5867 207.645C89.9056 207.109 92.0783 206.913 94.0516 206.938C94.1113 206.209 94.1683 205.457 94.2254 204.691C92.0508 204.658 89.6544 204.867 87.0842 205.462C83.9701 206.181 81.2655 206.592 78.9242 206.682C78.8546 207.448 78.7851 208.198 78.7156 208.924Z" fill="#E3E3E3"/>
<path d="M96.3804 216.234C96.7208 216.212 97.0587 216.187 97.3991 216.162C99.4124 204.309 98.2519 186.911 97.819 181.579C97.3716 176.043 98.2316 168.925 100.178 162.055C101.689 156.719 100.762 144.346 100.019 134.405C99.8099 131.615 99.6112 128.979 99.4944 126.813C99.1139 119.814 101.644 106.862 103.039 100.37C102.73 100.206 102.425 100.044 102.122 99.8818C100.725 106.308 98.1024 119.555 98.4999 126.868C98.6193 129.044 98.8181 131.684 99.0267 134.48C99.7647 144.344 100.684 156.617 99.2228 161.782C97.2443 168.763 96.3718 176.009 96.8291 181.659C97.2601 186.998 98.4284 204.505 96.3804 216.234Z" fill="#264CBE"/>
<path d="M75.7576 168.007C76.941 175.295 76.5677 180.029 76.1354 185.507C75.9964 187.279 75.852 189.109 75.7504 191.13C75.4348 197.471 74.3636 210.242 73.8886 215.766C74.2193 215.803 74.5473 215.838 74.8779 215.87C75.3528 210.347 76.4267 197.544 76.7442 191.179C76.8439 189.173 76.9876 187.349 77.1273 185.587C77.5622 180.043 77.9401 175.255 76.737 167.847C76.4812 166.257 76.2076 164.644 75.9367 163.039C74.5971 155.096 73.2097 146.882 73.8663 142.947C74.0251 141.986 74.2291 140.897 74.4482 139.742C75.3377 134.993 76.449 129.084 76.0987 123.956C75.7504 118.874 73.6702 105.112 72.8725 99.9248C72.5642 100.092 72.2565 100.261 71.9456 100.43C72.778 105.853 74.769 119.088 75.1068 124.023C75.4473 129.024 74.3511 134.865 73.4714 139.557C73.2523 140.717 73.0463 141.812 72.885 142.783C72.204 146.882 73.541 154.809 74.9579 163.205C75.2282 164.809 75.4991 166.419 75.7576 168.007Z" fill="#264CBE"/>
<path d="M56.193 117.34C56.193 117.34 46.0663 151.157 43.5585 163.209C41.0506 175.261 40.8564 200.315 40.8564 200.315C40.8564 200.315 36.4291 209.518 36.3248 213.614C36.2132 217.979 38.502 221.454 38.2409 224.311C37.9798 227.168 41.4534 225.617 40.472 219.829C39.4906 214.042 42.2747 208.8 43.4765 208.969C44.6783 209.137 42.482 215.287 43.5493 217.504C44.6159 219.72 45.9975 215.415 47.3705 212.802C48.7966 210.089 48.7127 204.17 48.0639 199.945C47.4151 195.72 55.0634 170.056 55.1001 162.619L64.7853 129.846C64.786 129.846 61.586 116.166 56.193 117.34Z" fill="#FFA681"/>
<path d="M66.0266 129.023C65.6835 131.197 64.483 134.927 62.9322 139.621V139.624C62.8004 140.02 62.6659 140.423 62.5321 140.833C62.5248 140.851 62.517 140.871 62.5124 140.891C62.1247 142.058 61.7193 143.28 61.3021 144.544C61.2994 144.552 61.2975 144.559 61.2948 144.567C59.5774 149.789 57.6757 155.762 56.0803 161.9C55.5312 164.001 55.0189 166.124 54.5643 168.239C53.9824 170.94 53.4904 173.633 53.1303 176.269C51.8353 185.764 49.3596 197.791 49.3596 197.791C45.728 199.284 40.0509 197.314 40.0509 197.314C40.0509 197.314 39.904 179.993 40.7148 173.262C41.7165 164.941 42.9918 159.018 44.5721 152.217C48.922 133.502 56.5775 115.191 58.6774 110.334C58.844 109.946 58.9759 109.644 59.0677 109.436H60.875C64.4312 111.7 66.9541 123.169 66.0266 129.023Z" fill="#006BDE"/>
<path d="M39.7549 193.847L40.0396 197.832C40.0396 197.832 45.4372 199.589 49.4834 198.352L50.5533 194.797C46.6573 195.003 43.0578 194.907 39.7549 193.847Z" fill="#009CF8"/>
<path d="M62.9321 139.622V139.624C62.9321 139.681 62.9223 139.739 62.9026 139.796C62.7806 140.132 62.6566 140.478 62.532 140.834C62.5248 140.851 62.5169 140.871 62.5123 140.891C62.1148 142.021 61.7094 143.25 61.302 144.545C61.2994 144.552 61.2974 144.56 61.2948 144.567C59.1798 151.297 57.0295 159.765 56.0402 165.174C56.05 164.086 56.0625 162.993 56.0802 161.901C55.5312 164.002 55.0188 166.125 54.5642 168.24C54.7682 166.256 55.335 163.284 56.1078 159.917C57.6691 153.102 60.0648 144.661 61.9685 139.455C62.0629 139.196 62.349 139.064 62.6074 139.159C62.8082 139.233 62.9321 139.42 62.9321 139.622Z" fill="#264CBE"/>
<path d="M244.08 229.054H268.001C267.921 227.393 267.842 225.8 267.766 224.296C267.349 216.094 266.995 210.509 266.995 210.509L247.541 211.374L245.928 211.447L243.067 211.575C243.067 211.575 243.343 216.569 243.773 223.886C243.867 225.503 243.97 227.237 244.08 229.054Z" fill="#18315B"/>
<path d="M245.927 211.447L243.066 211.575C243.066 211.575 243.342 216.569 243.772 223.885C251.246 224.509 259.407 224.764 267.766 224.295C267.348 216.093 266.994 210.508 266.994 210.508L247.54 211.373L245.927 211.447Z" fill="#000B29"/>
<path d="M248.532 229.054C248.095 221.462 247.737 214.975 247.54 211.374L245.927 211.447C246.123 215.032 246.48 221.488 246.916 229.054H248.532Z" fill="#000B29"/>
<path d="M237.061 229.054C237.185 226.997 237.3 225.047 237.406 223.249C237.818 216.279 238.076 211.575 238.076 211.575L234.971 211.436L233.36 211.363L214.145 210.508C214.145 210.508 213.934 213.836 213.646 219.127C213.493 221.947 213.318 225.326 213.14 229.053H237.061V229.054Z" fill="#18315B"/>
<path d="M213.645 219.127C218.861 220.355 227.27 222.078 237.405 223.248C237.817 216.278 238.076 211.574 238.076 211.574L234.97 211.435L233.36 211.362L214.145 210.507C214.145 210.507 213.934 213.836 213.645 219.127Z" fill="#000B29"/>
<path d="M233.982 229.053C234.418 221.48 234.775 215.018 234.97 211.436L233.36 211.363C233.163 214.963 232.804 221.453 232.366 229.053H233.982Z" fill="#000B29"/>
<path d="M270.468 214.242C265.595 215.585 260.723 216.598 255.85 217.278C254.155 217.517 252.462 217.715 250.769 217.871C248.486 218.083 246.203 218.225 243.921 218.296C240.147 218.412 236.372 218.329 232.595 218.049C225.295 217.515 217.997 216.238 210.696 214.241C210.629 207.425 210.731 182.981 211.242 159.403C211.267 158.345 211.29 157.287 211.316 156.234C211.319 156.011 211.326 155.787 211.331 155.564C211.336 155.32 211.343 155.077 211.349 154.835C211.366 154.087 211.386 153.342 211.404 152.6C211.442 151.085 211.481 149.584 211.525 148.097C211.551 147.208 211.578 146.324 211.604 145.448C211.609 145.266 211.616 145.085 211.62 144.905C211.639 144.326 211.656 143.752 211.675 143.181C211.675 143.181 211.675 143.181 211.675 143.179C211.681 143.001 211.687 142.825 211.693 142.647C211.71 142.121 211.728 141.598 211.744 141.079C211.761 140.637 211.776 140.202 211.791 139.765C212.356 123.86 213.183 111.315 214.367 109.547C216.374 106.549 223.211 102.568 228.71 99.3278C230.669 98.1755 233.009 96.9767 234.347 96.0879C236.3 97.6625 237.717 99.0847 240.612 98.9868C243.851 98.8758 244.65 96.9254 245.885 95.2529C246.639 95.743 248.554 97.3156 249.549 97.9003C250.4 98.4035 251.323 98.9369 252.285 99.4913C253.773 100.344 255.355 101.25 256.923 102.174C259.246 103.543 261.536 104.955 263.436 106.304C265.332 107.654 266.839 108.943 267.584 110.061C268.659 111.677 269.355 122.139 269.803 135.908C269.821 136.39 269.834 136.878 269.853 137.37C269.855 137.429 269.855 137.489 269.855 137.55C269.873 138.05 269.888 138.564 269.899 139.077C269.944 140.627 269.985 142.21 270.029 143.819C270.037 144.158 270.045 144.501 270.05 144.842C270.057 145.099 270.065 145.357 270.067 145.61C270.082 146.272 270.096 146.936 270.111 147.606C270.115 147.74 270.117 147.874 270.12 148.009C270.157 149.776 270.191 151.567 270.222 153.373C270.232 153.902 270.241 154.432 270.248 154.961C270.656 179.751 270.561 206.917 270.468 214.242Z" fill="#006BDE"/>
<path d="M270.247 154.964L262.531 162.802L255.342 155.503L248.155 162.802L240.94 155.474L233.721 162.802L226.458 155.426L219.193 162.802L211.349 154.836C211.365 154.088 211.385 153.343 211.403 152.601C211.441 151.086 211.481 149.585 211.524 148.098L219.193 140.31L226.458 147.687L233.721 140.31L240.94 147.637L248.155 140.31L255.342 147.608L262.531 140.31L270.119 148.012C270.155 149.778 270.189 151.57 270.221 153.376C270.231 153.904 270.239 154.434 270.247 154.964Z" fill="#264CBE"/>
<path d="M256.928 195.361C256.928 195.361 256.927 195.361 256.926 195.361C246.594 195.316 237.776 190.608 232.197 186.666C226.164 182.404 222.507 178.084 222.471 178.041C222.295 177.831 222.322 177.517 222.532 177.339C222.742 177.163 223.056 177.19 223.232 177.4C223.268 177.442 226.858 181.679 232.793 185.869C238.251 189.721 246.869 194.321 256.931 194.366C257.205 194.367 257.427 194.591 257.426 194.866C257.424 195.14 257.202 195.361 256.928 195.361Z" fill="#264CBE"/>
<path d="M250.484 189.242C241.687 187.511 233.9 180.764 233.547 180.454C233.34 180.273 233.319 179.959 233.499 179.752C233.68 179.545 233.994 179.525 234.201 179.705C234.292 179.785 243.455 187.72 252.794 188.573C253.071 188.596 253.269 188.84 253.244 189.114C253.219 189.388 252.977 189.589 252.704 189.564C251.959 189.497 251.218 189.387 250.484 189.242Z" fill="#264CBE"/>
<path d="M232.866 112.68C232.631 112.68 232.423 112.514 232.377 112.275C232.326 112.005 232.503 111.744 232.773 111.693C245.37 109.299 249.166 101.184 249.203 101.102C249.316 100.852 249.611 100.74 249.861 100.854C250.111 100.967 250.223 101.262 250.109 101.513C249.95 101.866 246.058 110.182 232.959 112.671C232.928 112.677 232.896 112.68 232.866 112.68Z" fill="#264CBE"/>
<path d="M217.496 134.523V134.526C217.484 134.581 217.459 134.635 217.429 134.685C217.24 134.988 217.044 135.301 216.847 135.621C216.837 135.639 216.825 135.653 216.817 135.674C216.187 136.694 215.531 137.808 214.854 138.985C214.852 138.994 214.849 138.998 214.843 139.005C213.786 140.857 212.692 142.866 211.62 144.906C211.639 144.328 211.656 143.754 211.675 143.182C211.675 143.182 211.675 143.182 211.675 143.18C211.681 143.003 211.687 142.826 211.693 142.649C213.421 139.437 215.144 136.432 216.589 134.154C216.738 133.92 217.044 133.854 217.276 134C217.457 134.118 217.539 134.326 217.496 134.523Z" fill="#264CBE"/>
<path d="M280.97 116.072C280.97 116.072 297.078 110.888 301.845 100.303C303.224 97.2373 291.866 66.1133 291.866 66.1133L286.383 66.3787C286.383 66.3787 287.946 77.1777 288.893 83.2923C289.671 88.3196 290.93 94.3271 291.354 96.3051C291.446 96.7341 291.498 96.9725 291.498 96.9725C291.229 97.0192 290.96 97.0711 290.686 97.1256C283.16 98.6562 273.551 103.565 273.551 103.565L280.97 116.072Z" fill="#FFA681"/>
<path d="M295.545 99.9561C295.773 100.123 296.101 100.073 296.265 99.8425C296.438 99.6086 296.386 99.2848 296.151 99.1212C294.98 98.2685 293.211 97.268 291.354 96.3057C291.447 96.7346 291.498 96.9731 291.498 96.9731C291.229 97.0197 290.96 97.0716 290.686 97.1262C292.576 98.099 294.386 99.112 295.545 99.9561Z" fill="#F97853"/>
<path d="M256.324 101.834C256.324 101.834 251.452 113.284 263.856 119.658C272.44 124.07 291.996 112.552 291.996 112.552L285.024 97.7285C285.024 97.7285 267.131 105.119 256.324 101.834Z" fill="#006BDE"/>
<path d="M289.059 48.6145C288.574 48.9555 288.673 51.0583 288.887 53.0389C288.819 53.0487 288.749 53.0605 288.678 53.073C288.102 50.4296 286.954 45.9337 285.972 46.7916C285.329 47.3533 286.19 51.2304 286.777 53.5486C286.655 53.5861 286.534 53.6242 286.412 53.6636C285.673 50.9111 284.079 45.6092 283.018 46.6399C282.31 47.3276 283.669 51.9963 284.423 54.3777C284.318 54.419 284.216 54.4591 284.115 54.4992C283.393 52.1888 281.851 47.8184 280.795 48.8451C279.839 49.7747 282.579 56.3819 282.579 56.3819L283.297 58.9754C283.297 58.9754 282.444 59.3446 281.111 57.835C279.778 56.3254 278.185 56.06 279.292 58.2436C280.543 60.7116 282.394 62.4814 283.209 64.2274C284.024 65.9735 286.588 66.5509 286.588 66.5509L291.735 66.302C291.735 66.302 292.734 57.5893 290.814 53.4363C290.484 50.9689 289.904 48.0213 289.059 48.6145Z" fill="#FFA681"/>
<path d="M225.368 68.7071C225.368 77.4874 230.766 83.5376 239.531 83.5376C248.299 83.5376 254.412 77.0335 254.412 68.2525C254.412 65.8311 254.017 63.5701 253.258 61.5691C253.214 61.4502 253.169 61.3306 253.121 61.215C253.027 60.9877 252.931 60.7604 252.827 60.541C252.674 60.202 252.503 59.8703 252.324 59.5504C250.04 55.4374 245.948 52.8223 240.45 52.8223C229.937 52.8229 225.368 59.9268 225.368 68.7071Z" fill="#18315B"/>
<path d="M227.337 72.4873C227.337 72.4873 224.901 69.2349 223.09 71.9243C221.279 74.6138 223.84 82.5572 228.274 80.618L227.337 72.4873Z" fill="#F97853"/>
<path d="M227.306 78.1635C227.142 78.1635 226.991 78.0551 226.945 77.8895C226.257 75.4373 223.721 74.4433 223.695 74.4335C223.502 74.3593 223.404 74.1431 223.478 73.9493C223.551 73.7556 223.767 73.6583 223.961 73.7312C224.079 73.7759 226.875 74.8625 227.666 77.6865C227.722 77.8862 227.606 78.0932 227.407 78.149C227.373 78.1589 227.339 78.1635 227.306 78.1635Z" fill="#EA5143"/>
<path d="M224.744 76.9277C224.675 76.9277 224.605 76.9087 224.542 76.8679C224.368 76.7556 224.317 76.5237 224.43 76.349C224.449 76.3201 224.897 75.6342 225.836 75.2138C226.024 75.1284 226.247 75.2138 226.331 75.403C226.416 75.5922 226.331 75.8142 226.142 75.8983C225.416 76.2235 225.063 76.7503 225.06 76.7556C224.989 76.8673 224.868 76.9277 224.744 76.9277Z" fill="#EA5143"/>
<path d="M252.44 72.4873C252.44 72.4873 254.876 69.2349 256.687 71.9243C258.498 74.6138 255.937 82.5572 251.503 80.618L252.44 72.4873Z" fill="#F97853"/>
<path d="M252.472 78.1635C252.635 78.1635 252.786 78.0551 252.832 77.8895C253.52 75.4373 256.057 74.4433 256.082 74.4335C256.275 74.3593 256.373 74.1431 256.299 73.9493C256.226 73.7556 256.01 73.6583 255.817 73.7312C255.698 73.7759 252.902 74.8625 252.11 77.6865C252.054 77.8862 252.171 78.0932 252.37 78.149C252.404 78.1589 252.438 78.1635 252.472 78.1635Z" fill="#EA5143"/>
<path d="M255.033 76.9277C255.102 76.9277 255.172 76.9087 255.235 76.8679C255.409 76.7556 255.46 76.5237 255.347 76.349C255.329 76.3201 254.88 75.6342 253.941 75.2138C253.753 75.1284 253.53 75.2138 253.446 75.403C253.361 75.5922 253.446 75.8142 253.635 75.8983C254.361 76.2235 254.714 76.7503 254.717 76.7556C254.789 76.8673 254.909 76.9277 255.033 76.9277Z" fill="#EA5143"/>
<path d="M245.885 87.3555V95.2549C245.885 95.2549 243.532 99.2778 240.351 99.5518C237.172 99.8296 234.348 96.0878 234.348 96.0878V87.9106L245.885 87.3555Z" fill="#FFA681"/>
<path d="M245.885 87.3555V90.8608C243.75 93.2329 239.958 93.8254 234.348 92.9957V87.9106L245.885 87.3555Z" fill="#F97853"/>
<path d="M254.202 67.0685C254.055 70.1382 253.763 73.9772 253.178 77.047C253.032 77.8123 252.867 78.5329 252.684 79.1787C251.023 84.9989 246.871 94.9814 235.246 90.8232C230.113 88.9877 227.733 83.2614 226.672 77.4372C225.953 73.4819 225.844 69.4852 225.897 66.6296C225.953 63.7143 227.542 61.0491 230.076 59.6118C236.938 55.7163 244.178 57.1688 248.944 59.0042C252.253 60.276 254.37 63.5297 254.202 67.0685Z" fill="#FFA681"/>
<path d="M233.935 75.0455C234.471 75.0455 234.905 74.362 234.905 73.5188C234.905 72.6757 234.471 71.9922 233.935 71.9922C233.4 71.9922 232.966 72.6757 232.966 73.5188C232.966 74.362 233.4 75.0455 233.935 75.0455Z" fill="#18315B"/>
<path d="M245.36 75.0143C245.895 75.0143 246.33 74.3308 246.33 73.4876C246.33 72.6444 245.895 71.9609 245.36 71.9609C244.824 71.9609 244.39 72.6444 244.39 73.4876C244.39 74.3308 244.824 75.0143 245.36 75.0143Z" fill="#18315B"/>
<path d="M248.52 68.2404C248.52 68.2404 245.462 67.0297 243.107 68.0486L243.342 69.3598C243.342 69.3598 246.799 69.0668 248.54 69.7736C248.696 69.2698 248.719 68.7594 248.52 68.2404Z" fill="#18315B"/>
<path d="M230.7 68.2404C230.7 68.2404 233.759 67.0297 236.114 68.0486L235.878 69.3598C235.878 69.3598 232.422 69.0668 230.681 69.7736C230.524 69.2698 230.502 68.7594 230.7 68.2404Z" fill="#18315B"/>
<path d="M240.019 79.917C240.651 79.917 241.278 79.6706 241.375 79.6305C241.567 79.5524 241.658 79.3336 241.58 79.1411C241.502 78.9493 241.283 78.8574 241.092 78.9355C240.754 79.0728 239.941 79.2889 239.589 79.0781C239.521 79.0373 239.428 78.9565 239.404 78.7286C239.269 77.4181 239.627 73.0253 239.631 72.9813C239.648 72.775 239.494 72.5937 239.288 72.5766C239.081 72.5588 238.901 72.7132 238.884 72.9195C238.869 73.1028 238.517 77.4266 238.659 78.8055C238.713 79.3244 238.985 79.5905 239.204 79.7218C239.444 79.8664 239.732 79.917 240.019 79.917Z" fill="#F97853"/>
<path d="M234.987 81.8232C235.61 83.9884 237.38 86.1484 239.82 86.1786C242.257 86.149 244.028 83.9884 244.651 81.8232H234.987Z" fill="white"/>
<path d="M239.612 88.5304C240.582 88.5304 241.404 88.0384 241.439 88.0173C241.616 87.9103 241.672 87.679 241.565 87.5017C241.458 87.3243 241.227 87.2678 241.05 87.3749C241.044 87.3788 240.367 87.7789 239.612 87.7789C238.918 87.7789 238.254 87.3808 238.248 87.3762C238.072 87.2678 237.841 87.3217 237.732 87.4984C237.623 87.6744 237.678 87.9057 237.854 88.0147C237.888 88.037 238.696 88.5304 239.612 88.5304Z" fill="#F97853"/>
<path d="M253.805 72.5544H252.107C252.294 70.847 252.563 67.8397 251.163 67.4087C246.738 66.0476 252.473 62.9161 250.475 61.3546C248.478 59.7898 243.506 60.4605 240.048 60.3482C236.569 60.2352 230.978 60.2845 229.622 60.5998C228.261 60.9112 229.007 63.173 229.506 64.9256C230.008 66.6743 227.838 68.6109 227.475 70.424C227.37 70.9442 227.392 71.7168 227.475 72.5544H226.06C225.892 70.3484 225.867 68.2949 225.897 66.6296C225.953 63.7142 227.542 61.0491 230.076 59.6118C236.937 55.7163 244.178 57.1688 248.944 59.0042C252.253 60.276 254.371 63.5297 254.202 67.0684C254.121 68.7508 253.997 70.6638 253.805 72.5544Z" fill="#18315B"/>
<path d="M233.764 77.9389C231.425 77.9389 229.521 76.0332 229.521 73.6907C229.521 71.3481 231.425 69.4424 233.764 69.4424C236.103 69.4424 238.006 71.3481 238.006 73.6907C238.006 76.0332 236.103 77.9389 233.764 77.9389ZM233.764 70.1046C231.789 70.1046 230.183 71.7133 230.183 73.6907C230.183 75.668 231.789 77.2768 233.764 77.2768C235.738 77.2768 237.345 75.668 237.345 73.6907C237.345 71.7133 235.738 70.1046 233.764 70.1046Z" fill="white"/>
<path d="M245.36 77.9389C243.021 77.9389 241.118 76.0332 241.118 73.6907C241.118 71.3481 243.021 69.4424 245.36 69.4424C247.699 69.4424 249.602 71.3481 249.602 73.6907C249.602 76.0332 247.699 77.9389 245.36 77.9389ZM245.36 70.1046C243.385 70.1046 241.779 71.7133 241.779 73.6907C241.779 75.668 243.385 77.2768 245.36 77.2768C247.335 77.2768 248.941 75.668 248.941 73.6907C248.941 71.7133 247.335 70.1046 245.36 70.1046Z" fill="white"/>
<path d="M230.239 72.3221C230.155 72.3221 230.07 72.2899 230.006 72.2262C229.987 72.2071 228.059 70.3349 225.531 70.9255C225.354 70.9675 225.175 70.8565 225.134 70.6785C225.093 70.5005 225.203 70.3225 225.381 70.2811C228.272 69.6058 230.383 71.6685 230.471 71.7572C230.601 71.8859 230.601 72.0961 230.473 72.2255C230.408 72.2899 230.323 72.3221 230.239 72.3221Z" fill="white"/>
<path d="M248.963 72.3227C248.856 72.3227 248.75 72.2695 248.686 72.1722C248.586 72.0192 248.629 71.8142 248.782 71.7144C248.908 71.6316 251.91 69.6924 254.465 70.1135C254.645 70.143 254.767 70.3138 254.737 70.4938C254.707 70.6738 254.538 70.796 254.357 70.7664C252.058 70.3874 249.173 72.2491 249.143 72.2682C249.088 72.3056 249.026 72.3227 248.963 72.3227Z" fill="white"/>
<path d="M241.351 72.7372C241.343 72.7267 240.558 71.6631 239.524 71.6631C238.502 71.6631 237.791 72.7254 237.785 72.7359L237.231 72.3739C237.268 72.3181 238.14 71.001 239.524 71.001C240.899 71.001 241.847 72.2951 241.887 72.3503L241.351 72.7372Z" fill="white"/>
<path d="M216.1 133.899C216.1 133.899 211.63 142.565 206.368 149.429C204.815 151.453 203.195 153.321 201.598 154.764C199.011 157.103 196.488 158.327 194.433 157.288C186.811 153.441 169.819 122.819 169.819 122.819L174.003 117.848C174.003 117.848 181.566 126.594 187.097 131.827C192.197 136.654 196.119 140.262 196.119 140.262C196.825 139.186 197.577 138.006 198.359 136.758C199.191 135.434 200.054 134.031 200.932 132.589C207.301 122.119 214.368 109.549 214.368 109.549L216.1 133.899Z" fill="#FFA681"/>
<path d="M206.368 149.429C204.815 151.454 203.195 153.321 201.598 154.764L198.359 136.759C199.191 135.434 200.054 134.032 200.932 132.59L206.368 149.429Z" fill="#F97853"/>
<path d="M214.367 109.549L199.092 133.605L204.219 154.764L216.859 134.154C216.859 134.154 218.391 120.054 214.367 109.549Z" fill="#006BDE"/>
<path d="M195.161 229.055C194.07 223.001 192.995 216.173 192.017 209.542C191.803 208.076 191.593 206.622 191.386 205.188C190.602 199.698 189.902 194.507 189.34 190.199C189.125 188.563 188.933 187.052 188.758 185.704C188.213 181.403 187.893 178.732 187.893 178.732L163.772 179.646L139.578 178.732C139.578 178.732 138.954 184.017 137.955 191.68C137.773 193.074 137.578 194.545 137.374 196.081C136.836 200.102 136.222 204.543 135.562 209.09C135.552 209.156 135.542 209.223 135.532 209.289C135.325 210.706 135.116 212.133 134.898 213.56C134.896 213.58 134.894 213.597 134.889 213.617V213.619C134.371 217.067 133.829 220.511 133.277 223.824C133.05 225.191 132.821 226.534 132.589 227.842C132.517 228.25 132.445 228.653 132.374 229.053H195.161V229.055Z" fill="#006BDE"/>
<path d="M142.865 188.263C144.12 188.263 145.138 187.244 145.138 185.987C145.138 184.73 144.12 183.711 142.865 183.711C141.61 183.711 140.592 184.73 140.592 185.987C140.592 187.244 141.61 188.263 142.865 188.263Z" fill="#264CBE"/>
<path d="M148.507 197.083C149.762 197.083 150.78 196.064 150.78 194.806C150.78 193.549 149.762 192.53 148.507 192.53C147.251 192.53 146.234 193.549 146.234 194.806C146.234 196.064 147.251 197.083 148.507 197.083Z" fill="#264CBE"/>
<path d="M159.606 192.53C160.861 192.53 161.879 191.511 161.879 190.254C161.879 188.997 160.861 187.978 159.606 187.978C158.35 187.978 157.333 188.997 157.333 190.254C157.333 191.511 158.35 192.53 159.606 192.53Z" fill="#264CBE"/>
<path d="M142.088 206.449C143.343 206.449 144.361 205.43 144.361 204.173C144.361 202.916 143.343 201.896 142.088 201.896C140.832 201.896 139.815 202.916 139.815 204.173C139.815 205.43 140.832 206.449 142.088 206.449Z" fill="#264CBE"/>
<path d="M155.957 205.476C157.212 205.476 158.23 204.457 158.23 203.2C158.23 201.943 157.212 200.924 155.957 200.924C154.702 200.924 153.684 201.943 153.684 203.2C153.684 204.457 154.702 205.476 155.957 205.476Z" fill="#264CBE"/>
<path d="M139.435 193.815C139.435 195 138.533 195.975 137.375 196.081C137.58 194.546 137.774 193.074 137.957 191.68C138.822 192.003 139.435 192.835 139.435 193.815Z" fill="#264CBE"/>
<path d="M178.558 218.85C179.813 218.85 180.831 217.831 180.831 216.574C180.831 215.317 179.813 214.298 178.558 214.298C177.303 214.298 176.285 215.317 176.285 216.574C176.285 217.831 177.303 218.85 178.558 218.85Z" fill="#264CBE"/>
<path d="M177.484 206.449C178.739 206.449 179.757 205.43 179.757 204.173C179.757 202.916 178.739 201.896 177.484 201.896C176.229 201.896 175.211 202.916 175.211 204.173C175.211 205.43 176.229 206.449 177.484 206.449Z" fill="#264CBE"/>
<path d="M192.017 209.542C191.744 209.658 191.441 209.722 191.125 209.722C189.87 209.722 188.852 208.702 188.852 207.445C188.852 206.189 189.87 205.17 191.125 205.17C191.214 205.17 191.3 205.175 191.386 205.187C191.593 206.622 191.803 208.075 192.017 209.542Z" fill="#264CBE"/>
<path d="M179.758 227.939C181.013 227.939 182.031 226.92 182.031 225.663C182.031 224.406 181.013 223.387 179.758 223.387C178.503 223.387 177.485 224.406 177.485 225.663C177.485 226.92 178.503 227.939 179.758 227.939Z" fill="#264CBE"/>
<path d="M189.482 224.305C190.737 224.305 191.755 223.286 191.755 222.029C191.755 220.772 190.737 219.753 189.482 219.753C188.226 219.753 187.209 220.772 187.209 222.029C187.209 223.286 188.226 224.305 189.482 224.305Z" fill="#264CBE"/>
<path d="M171.521 229.054C171.112 228.456 170.427 228.062 169.647 228.062C168.868 228.062 168.183 228.456 167.774 229.054H171.521Z" fill="#264CBE"/>
<path d="M140.592 220.831C141.847 220.831 142.865 219.812 142.865 218.555C142.865 217.297 141.847 216.278 140.592 216.278C139.337 216.278 138.319 217.297 138.319 218.555C138.319 219.812 139.337 220.831 140.592 220.831Z" fill="#264CBE"/>
<path d="M136.867 211.363C136.867 212.519 136.007 213.474 134.89 213.617C134.895 213.597 134.897 213.58 134.9 213.561C135.117 212.134 135.326 210.707 135.534 209.29C136.32 209.651 136.867 210.443 136.867 211.363Z" fill="#264CBE"/>
<path d="M134.21 225.661C134.21 226.691 133.527 227.56 132.59 227.844C132.822 226.536 133.051 225.192 133.278 223.825C133.842 224.239 134.21 224.908 134.21 225.661Z" fill="#264CBE"/>
<path d="M146.233 228.901C147.489 228.901 148.507 227.882 148.507 226.625C148.507 225.367 147.489 224.348 146.233 224.348C144.977 224.348 143.959 225.367 143.959 226.625C143.959 227.882 144.977 228.901 146.233 228.901Z" fill="#264CBE"/>
<path d="M158.231 227.118C159.486 227.118 160.504 226.099 160.504 224.842C160.504 223.585 159.486 222.565 158.231 222.565C156.975 222.565 155.958 223.585 155.958 224.842C155.958 226.099 156.975 227.118 158.231 227.118Z" fill="#264CBE"/>
<path d="M149.671 215.925C150.926 215.925 151.944 214.905 151.944 213.648C151.944 212.391 150.926 211.372 149.671 211.372C148.416 211.372 147.398 212.391 147.398 213.648C147.398 214.905 148.416 215.925 149.671 215.925Z" fill="#264CBE"/>
<path d="M161.879 213.648C163.134 213.648 164.152 212.629 164.152 211.372C164.152 210.115 163.134 209.096 161.879 209.096C160.623 209.096 159.605 210.115 159.605 211.372C159.605 212.629 160.623 213.648 161.879 213.648Z" fill="#264CBE"/>
<path d="M167.374 201.636C168.629 201.636 169.647 200.617 169.647 199.36C169.647 198.103 168.629 197.084 167.374 197.084C166.119 197.084 165.101 198.103 165.101 199.36C165.101 200.617 166.119 201.636 167.374 201.636Z" fill="#264CBE"/>
<path d="M189.34 190.198C189.183 190.235 189.02 190.253 188.852 190.253C187.594 190.253 186.579 189.233 186.579 187.977C186.579 186.752 187.545 185.75 188.758 185.703C188.933 187.051 189.126 188.562 189.34 190.198Z" fill="#264CBE"/>
<path d="M175.211 192.53C176.466 192.53 177.484 191.511 177.484 190.254C177.484 188.997 176.466 187.978 175.211 187.978C173.956 187.978 172.938 188.997 172.938 190.254C172.938 191.511 173.956 192.53 175.211 192.53Z" fill="#264CBE"/>
<path d="M183.537 200.643C184.792 200.643 185.81 199.624 185.81 198.367C185.81 197.11 184.792 196.091 183.537 196.091C182.282 196.091 181.264 197.11 181.264 198.367C181.264 199.624 182.282 200.643 183.537 200.643Z" fill="#264CBE"/>
<path d="M169.648 220.831C170.903 220.831 171.921 219.812 171.921 218.555C171.921 217.297 170.903 216.278 169.648 216.278C168.392 216.278 167.375 217.297 167.375 218.555C167.375 219.812 168.392 220.831 169.648 220.831Z" fill="#264CBE"/>
<path d="M189.36 179.33C176.636 187.648 153.272 186.997 138.59 179.33C139.993 170.582 141.84 161.823 141.443 150.18C141.398 148.904 141.344 147.635 141.28 146.378C141.224 145.285 141.159 144.199 141.09 143.125C139.823 123.754 136.523 107.917 138.144 105.87C138.852 104.974 140.032 104.007 141.489 103.017C142.061 102.627 142.673 102.232 143.318 101.837C144.841 100.906 146.535 99.9681 148.236 99.055C152.271 96.8976 156.367 94.8954 158.421 93.5283C160.457 94.4171 162.079 94.9032 163.827 94.8934C163.874 94.8934 163.926 94.8934 163.978 94.8881C164.025 94.8934 164.076 94.8934 164.123 94.8934C165.871 94.9032 167.493 94.4171 169.531 93.5283C171.437 94.7975 175.023 96.5672 178.684 98.4972C181.373 99.9168 184.102 101.422 186.226 102.883C187.617 103.839 188.753 104.777 189.448 105.656C190.252 106.67 189.914 111.119 189.226 117.709C188.546 124.194 187.528 132.757 186.912 142.17C186.742 144.783 186.602 147.462 186.508 150.18C186.114 161.824 187.958 170.582 189.36 179.33Z" fill="#009CF8"/>
<path d="M181.579 169.655C181.578 169.655 181.577 169.655 181.577 169.655C171.33 169.61 162.584 164.941 157.052 161.032C151.068 156.805 147.442 152.521 147.406 152.477C147.231 152.269 147.257 151.957 147.465 151.782C147.674 151.606 147.985 151.633 148.16 151.842C148.196 151.884 151.756 156.086 157.642 160.24C163.054 164.06 171.601 168.623 181.58 168.667C181.852 168.668 182.072 168.89 182.071 169.163C182.071 169.436 181.85 169.655 181.579 169.655Z" fill="#006BDE"/>
<path d="M174.795 163.682C166.071 161.965 158.348 155.274 157.998 154.966C157.793 154.786 157.772 154.475 157.951 154.27C158.13 154.064 158.442 154.045 158.647 154.223C158.738 154.303 167.826 162.172 177.087 163.019C177.362 163.041 177.558 163.284 177.533 163.555C177.508 163.826 177.268 164.027 176.997 164.002C176.258 163.934 175.523 163.826 174.795 163.682Z" fill="#006BDE"/>
<path d="M161.879 118.481C161.646 118.481 161.44 118.317 161.394 118.079C161.344 117.811 161.52 117.553 161.787 117.502C174.279 115.128 178.044 107.08 178.081 106.999C178.193 106.751 178.485 106.641 178.734 106.753C178.982 106.865 179.092 107.158 178.98 107.406C178.822 107.756 174.962 116.004 161.971 118.472C161.94 118.478 161.909 118.481 161.879 118.481Z" fill="#006BDE"/>
<path d="M178.683 98.4982C176.204 104.162 170.108 110.027 162.181 108.655C154.504 107.326 150.864 103.261 148.236 99.0553C152.272 96.8973 156.369 94.8976 158.421 93.5293C160.458 94.4168 162.08 94.9029 163.826 94.895C163.873 94.895 163.927 94.895 163.976 94.8898C164.024 94.895 164.077 94.895 164.124 94.895C165.87 94.9029 167.493 94.4168 169.532 93.5293C171.437 94.7971 175.025 96.5669 178.683 98.4982Z" fill="#FFA681"/>
<path d="M172.056 93.9434C171.837 93.9408 171.663 94.1168 171.661 94.3336C171.659 94.6522 171.529 102.138 164.818 102.718C158.593 103.26 156.016 97.293 155.221 94.8177C155.174 94.6726 155.04 94.5753 154.888 94.5753H154.814C154.575 94.5753 154.405 94.8092 154.481 95.0365C155.33 97.5906 158.044 103.758 164.385 103.532C164.55 103.526 164.716 103.515 164.886 103.501C172.313 102.859 172.445 94.4236 172.446 94.3382C172.447 94.1214 172.273 93.9447 172.056 93.9434Z" fill="white"/>
<path d="M176.801 54.1494C176.801 54.1494 182.799 63.4527 182.141 73.1428C181.484 82.833 183.025 94.0189 174.366 93.5275C165.708 93.0362 150.263 97.0039 145.354 89.4566C140.445 81.91 176.801 54.1494 176.801 54.1494Z" fill="#18315B"/>
<path d="M179.023 71.2555C179.023 71.2555 180.58 85.3017 173.924 89.169C167.268 93.0362 162.451 88.7183 162.451 88.7183C162.451 88.7183 176.481 69.1403 179.023 71.2555Z" fill="#000B29"/>
<path d="M151.377 71.1909C151.377 71.1909 148.987 68.0002 147.21 70.6384C145.433 73.2772 147.945 81.0702 152.296 79.1678L151.377 71.1909Z" fill="#F97853"/>
<path d="M151.346 76.7592C151.185 76.7592 151.037 76.6528 150.991 76.4906C150.317 74.0843 147.828 73.1094 147.803 73.0996C147.613 73.0273 147.518 72.8145 147.589 72.6246C147.662 72.4348 147.874 72.3388 148.063 72.4104C148.179 72.4545 150.923 73.5206 151.699 76.2915C151.754 76.4873 151.64 76.6903 151.445 76.7454C151.412 76.7546 151.379 76.7592 151.346 76.7592Z" fill="#EA5143"/>
<path d="M148.833 75.5471C148.764 75.5471 148.696 75.528 148.634 75.4886C148.463 75.3783 148.414 75.151 148.524 74.9795C148.542 74.9513 148.982 74.2786 149.904 73.8654C150.088 73.782 150.307 73.8654 150.389 74.0513C150.472 74.2365 150.389 74.4546 150.204 74.5374C149.491 74.8567 149.145 75.373 149.142 75.3783C149.072 75.488 148.954 75.5471 148.833 75.5471Z" fill="#EA5143"/>
<path d="M176.006 71.1909C176.006 71.1909 178.396 68.0002 180.173 70.6384C181.95 73.2772 179.438 81.0702 175.087 79.1678L176.006 71.1909Z" fill="#F97853"/>
<path d="M176.036 76.7592C176.197 76.7592 176.345 76.6528 176.391 76.4906C177.065 74.0843 179.554 73.1094 179.579 73.0996C179.769 73.0273 179.864 72.8145 179.793 72.6246C179.721 72.4348 179.509 72.3388 179.319 72.4104C179.203 72.4545 176.46 73.5206 175.683 76.2915C175.628 76.4873 175.742 76.6903 175.937 76.7454C175.971 76.7546 176.004 76.7592 176.036 76.7592Z" fill="#EA5143"/>
<path d="M178.549 75.5471C178.618 75.5471 178.687 75.528 178.748 75.4886C178.919 75.3783 178.968 75.151 178.858 74.9795C178.84 74.9513 178.4 74.2786 177.478 73.8654C177.294 73.782 177.075 73.8654 176.993 74.0513C176.91 74.2365 176.993 74.4546 177.178 74.5374C177.891 74.8567 178.237 75.373 178.24 75.3783C178.31 75.488 178.429 75.5471 178.549 75.5471Z" fill="#EA5143"/>
<path d="M169.574 85.7783V93.5286C169.574 93.5286 167.266 97.4753 164.144 97.7447C161.026 98.0173 158.255 94.3464 158.255 94.3464V86.3236L169.574 85.7783Z" fill="#FFA681"/>
<path d="M169.574 85.7783V89.2173C167.479 91.5447 163.761 92.3691 158.256 91.5559L158.255 86.3236L169.574 85.7783Z" fill="#F97853"/>
<path d="M177.734 65.8739C177.59 68.8859 177.304 72.652 176.73 75.6639C176.587 76.4148 176.425 77.1216 176.245 77.7555C174.616 83.4661 170.542 93.2601 159.137 89.1806C154.1 87.38 151.765 81.7614 150.725 76.0476C150.019 72.1665 149.912 68.2454 149.964 65.4436C150.019 62.5828 151.577 59.9689 154.063 58.5585C160.795 54.7366 167.899 56.1614 172.575 57.962C175.822 59.2102 177.899 62.4021 177.734 65.8739Z" fill="#FFA681"/>
<path d="M157.718 73.143C158.243 73.143 158.669 72.4724 158.669 71.6452C158.669 70.818 158.243 70.1475 157.718 70.1475C157.192 70.1475 156.766 70.818 156.766 71.6452C156.766 72.4724 157.192 73.143 157.718 73.143Z" fill="#18315B"/>
<path d="M169.462 73.143C169.987 73.143 170.413 72.4724 170.413 71.6452C170.413 70.818 169.987 70.1475 169.462 70.1475C168.937 70.1475 168.511 70.818 168.511 71.6452C168.511 72.4724 168.937 73.143 169.462 73.143Z" fill="#18315B"/>
<path d="M155.833 67.1855C156.623 66.9621 158.219 66.5798 159.902 66.5752C160.345 66.5739 160.684 66.968 160.606 67.4049L160.604 67.416C160.542 67.7649 160.23 68.0112 159.876 67.9948C158.731 67.9416 155.725 68.1025 154.306 68.6786C154.277 68.4316 154.422 68.161 154.629 67.9212C154.943 67.5566 155.372 67.3162 155.833 67.1855Z" fill="#18315B"/>
<path d="M171.2 67.2167C170.41 66.9934 168.815 66.611 167.132 66.6064C166.689 66.6051 166.35 66.9993 166.428 67.4361L166.43 67.4473C166.492 67.7961 166.804 68.0425 167.157 68.026C168.302 67.9728 171.308 68.1338 172.728 68.7099C172.756 68.4629 172.611 68.1922 172.404 67.9518C172.091 67.5872 171.662 67.3468 171.2 67.2167Z" fill="#18315B"/>
<path d="M163.819 78.4803C163.537 78.4803 163.255 78.4304 163.019 78.2892C162.805 78.1604 162.537 77.8996 162.485 77.3905C162.345 76.0373 162.691 71.7956 162.706 71.6156C162.722 71.4126 162.9 71.2621 163.103 71.2786C163.305 71.295 163.455 71.473 163.439 71.676C163.435 71.7194 163.084 76.0294 163.217 77.315C163.24 77.5383 163.331 77.6178 163.398 77.6579C163.743 77.8648 164.541 77.6533 164.872 77.5186C165.06 77.4411 165.275 77.5324 165.351 77.7203C165.428 77.9082 165.338 78.123 165.15 78.1998C165.054 78.2386 164.439 78.4803 163.819 78.4803Z" fill="#F97853"/>
<path d="M159.15 80.8047C159.428 82.2052 160.351 84.7816 163.464 84.7816C166.583 84.7816 167.459 82.4273 167.759 80.8047H159.15Z" fill="white"/>
<path d="M163.42 86.9306C162.521 86.9306 161.728 86.4464 161.695 86.4254C161.522 86.3183 161.469 86.0917 161.576 85.9189C161.682 85.7462 161.908 85.693 162.081 85.7987C162.087 85.8027 162.734 86.1942 163.42 86.1942C164.161 86.1942 164.825 85.8007 164.832 85.7967C165.006 85.6923 165.231 85.7481 165.336 85.9222C165.441 86.0956 165.386 86.3216 165.212 86.4267C165.178 86.4477 164.371 86.9306 163.42 86.9306Z" fill="#F97853"/>
<path d="M179.215 65.274C179.097 65.6097 178.769 65.8245 178.33 65.9526C178.362 66.7645 178.277 67.7413 178.197 68.6774C177.743 73.9991 176.402 74.9332 176.099 73.6174C175.9 72.7437 175.912 67.7321 176.008 66.0977C174.958 66.0288 174.061 65.8534 174.061 65.8534L172.828 60.6867L172.396 65.789C170.548 66.4334 166.234 65.4014 166.234 65.4014L164.787 60.309L163.892 65.2089C161.119 66.5615 157.653 65.6609 157.653 65.6609L156.856 60.376L155.017 65.6609C155.017 65.6609 149.102 67.786 149.037 65.6609C148.998 64.4239 149.903 60.941 150.667 58.243C151.5 55.3007 153.43 52.8149 156.041 51.4131C163.379 47.4683 171.139 49.5665 173.801 51.1588C179.446 54.5334 179.215 65.274 179.215 65.274Z" fill="#18315B"/>
<path d="M152.296 54.543C152.296 54.543 147.426 60.3435 145.823 70.7037C144.22 81.0639 142.002 88.7183 148.236 92.1395C154.984 95.8419 154.4 88.2486 154.302 86.1846C154.205 84.1206 148.466 78.4796 152.296 62.5915C153.532 57.4623 152.296 54.543 152.296 54.543Z" fill="#18315B"/>
<path d="M151.158 75.9521C151.158 75.9521 151.158 75.9574 151.158 75.9646C151.16 76.0415 151.165 76.4534 151.194 77.0978C151.21 77.4979 151.234 77.984 151.271 78.5371C151.5 82.0273 152.178 88.0558 154.169 90.1461C154.956 90.9732 156.472 91.3877 158.256 91.5558V88.8132C156.376 87.9198 154.909 86.451 153.773 84.6438C153.07 83.1204 151.86 80.7365 151.293 76.9868L151.158 75.9521Z" fill="#000B29"/>
<path d="M176.961 80.2055C177.436 80.2055 177.822 79.8194 177.822 79.343C177.822 78.8666 177.436 78.4805 176.961 78.4805C176.485 78.4805 176.099 78.8666 176.099 79.343C176.099 79.8194 176.485 80.2055 176.961 80.2055Z" fill="white"/>
<path d="M195.377 144.326C192.937 151.321 182.009 150.812 169.564 146.988C169.546 146.983 169.528 146.976 169.51 146.972C169.47 146.96 169.433 146.947 169.394 146.935L167.682 146.389C167.445 146.312 167.208 146.233 166.972 146.152C165.63 145.702 164.28 145.216 162.923 144.701C158.476 143.009 153.995 141.004 149.769 138.867L149.798 138.793L151.071 135.483L151.505 134.356C151.505 134.356 174.578 136.874 186.179 134.445C186.376 134.404 186.567 134.363 186.756 134.319C186.71 134.061 186.696 133.798 186.624 133.552C180.477 112.597 187.199 108.579 189.449 105.656C189.449 105.655 199.983 131.121 195.377 144.326Z" fill="#009CF8"/>
<path d="M191.617 137.84C191.548 137.873 191.475 137.889 191.402 137.889C191.22 137.889 191.044 137.788 190.959 137.613C190.08 135.81 187.096 134.738 186.179 134.445C186.376 134.403 186.568 134.362 186.757 134.318C186.711 134.061 186.667 133.805 186.624 133.552C187.79 133.937 190.835 135.113 191.843 137.183C191.963 137.424 191.861 137.72 191.617 137.84Z" fill="#006BDE"/>
<path d="M159.301 136.962C154.592 136.962 150.768 136.691 150.435 136.667C150.164 136.647 149.961 136.411 149.981 136.14C150 135.869 150.236 135.667 150.507 135.685C150.681 135.697 167.988 136.923 174.812 134.151C175.063 134.05 175.351 134.17 175.453 134.423C175.555 134.675 175.434 134.962 175.182 135.064C171.404 136.598 164.758 136.962 159.301 136.962Z" fill="#006BDE"/>
<path d="M167.681 146.388C167.683 146.388 167.683 146.388 167.683 146.388C171.632 145.297 175.221 144.235 177.294 143.57C180.172 142.646 182.552 139.733 183.635 137.257C183.743 137.007 184.033 136.894 184.282 137.004C184.531 137.112 184.644 137.403 184.536 137.652C183.365 140.33 180.765 143.49 177.594 144.509C176.089 144.992 173.792 145.682 171.137 146.44C170.006 146.765 168.803 146.747 167.681 146.388Z" fill="#006BDE"/>
<path d="M178.325 143.002C142.668 155.028 131.698 147.157 131.698 147.157C129.298 125.419 138.144 105.87 138.144 105.87C140.757 110.185 143.713 117.718 143.713 117.718L144.493 134.381L144.434 134.844L144.406 135.062L144.258 136.202L144.255 136.225C144.33 136.241 144.407 136.258 144.485 136.274C155.271 138.553 174.997 136.007 174.997 136.007L178.325 143.002Z" fill="#009CF8"/>
<path d="M144.485 136.275C142.559 137.891 140.731 139.752 139.101 141.892C138.937 142.109 138.628 142.151 138.411 141.986C138.195 141.821 138.154 141.513 138.316 141.296C138.318 141.296 138.318 141.294 138.318 141.294C140.15 138.885 142.225 136.823 144.407 135.062L144.259 136.202L144.256 136.225C144.33 136.242 144.407 136.258 144.485 136.275Z" fill="#006BDE"/>
<path d="M174.997 136.006C174.997 136.006 178.944 127.026 184.946 127.826L186.756 134.319C183.471 135.716 182.99 141.357 178.326 143.001L174.997 136.006Z" fill="#FFA681"/>
<path d="M151.507 134.356C151.507 134.356 149.014 128.496 142.452 126.795C135.891 125.094 131.711 128.191 131.271 129.359C130.831 130.527 133.745 129.411 133.745 129.411C133.745 129.411 131.847 129.949 130.758 131.735C129.669 133.522 133.409 131.594 133.409 131.594C133.409 131.594 130.727 132.771 130.386 133.862C130.045 134.954 133.582 133.11 134.246 133.145C134.246 133.145 131.088 134.402 131.109 135.528C131.131 136.654 134.738 134.818 137.431 134.963C140.124 135.109 144.254 136.226 144.254 136.226C146.458 136.646 148.564 136.957 150.47 137.045L151.507 134.356Z" fill="#FFA681"/>
<path d="M214.863 43.2459C212.435 43.2459 210.459 41.2672 210.459 38.8353C210.459 36.4034 212.435 34.4248 214.863 34.4248C217.292 34.4248 219.268 36.4034 219.268 38.8353C219.268 41.2672 217.292 43.2459 214.863 43.2459ZM214.863 35.8089C213.196 35.8089 211.84 37.1668 211.84 38.836C211.84 40.5052 213.196 41.8624 214.863 41.8624C216.53 41.8624 217.885 40.5045 217.885 38.836C217.886 37.1668 216.53 35.8089 214.863 35.8089Z" fill="#006BDE"/>
<path d="M253.288 35.7527C250.86 35.7527 248.884 33.7741 248.884 31.3422C248.884 28.9103 250.86 26.9316 253.288 26.9316C255.717 26.9316 257.693 28.9103 257.693 31.3422C257.693 33.7741 255.717 35.7527 253.288 35.7527ZM253.288 28.3158C251.622 28.3158 250.266 29.6736 250.266 31.3428C250.266 33.0121 251.622 34.3699 253.288 34.3699C254.955 34.3699 256.311 33.0121 256.311 31.3428C256.311 29.673 254.955 28.3158 253.288 28.3158Z" fill="#009CF8"/>
<path d="M258.73 50.0846C258.349 50.0846 258.039 49.7752 258.039 49.3928V46.3421C258.039 45.9598 258.349 45.6504 258.73 45.6504C259.112 45.6504 259.421 45.9598 259.421 46.3421V49.3928C259.421 49.7745 259.112 50.0846 258.73 50.0846Z" fill="#006BDE"/>
<path d="M258.73 55.4234C258.349 55.4234 258.039 55.114 258.039 54.7317V51.681C258.039 51.2987 258.349 50.9893 258.73 50.9893C259.112 50.9893 259.421 51.2987 259.421 51.681V54.7317C259.421 55.114 259.112 55.4234 258.73 55.4234Z" fill="#006BDE"/>
<path d="M263.006 51.2282H260.27C259.888 51.2282 259.579 50.9188 259.579 50.5365C259.579 50.1541 259.888 49.8447 260.27 49.8447H263.006C263.388 49.8447 263.697 50.1541 263.697 50.5365C263.697 50.9188 263.388 51.2282 263.006 51.2282Z" fill="#006BDE"/>
<path d="M257.19 51.2282H254.453C254.072 51.2282 253.763 50.9188 253.763 50.5365C253.763 50.1541 254.072 49.8447 254.453 49.8447H257.19C257.572 49.8447 257.881 50.1541 257.881 50.5365C257.881 50.9188 257.572 51.2282 257.19 51.2282Z" fill="#006BDE"/>
<path d="M235.467 31.6021C235.085 31.6021 234.776 31.2921 234.776 30.9104V27.8597C234.776 27.4774 235.085 27.168 235.467 27.168C235.848 27.168 236.157 27.4774 236.157 27.8597V30.9104C236.157 31.2921 235.848 31.6021 235.467 31.6021Z" fill="#1C31B5"/>
<path d="M235.467 36.941C235.085 36.941 234.776 36.6316 234.776 36.2493V33.1986C234.776 32.8162 235.085 32.5068 235.467 32.5068C235.848 32.5068 236.157 32.8162 236.157 33.1986V36.2493C236.157 36.6316 235.848 36.941 235.467 36.941Z" fill="#1C31B5"/>
<path d="M239.743 32.7467H237.006C236.625 32.7467 236.316 32.4367 236.316 32.055C236.316 31.6727 236.625 31.3633 237.006 31.3633H239.743C240.125 31.3633 240.434 31.6727 240.434 32.055C240.434 32.4367 240.125 32.7467 239.743 32.7467Z" fill="#1C31B5"/>
<path d="M233.927 32.7467H231.19C230.808 32.7467 230.5 32.4367 230.5 32.055C230.5 31.6727 230.809 31.3633 231.19 31.3633H233.927C234.309 31.3633 234.618 31.6727 234.618 32.055C234.619 32.4367 234.309 32.7467 233.927 32.7467Z" fill="#1C31B5"/>
<path d="M57.4448 27.6449C57.4448 25.213 59.4207 23.2344 61.8492 23.2344C64.2777 23.2344 66.2536 25.213 66.2536 27.6449C66.2536 30.0768 64.2777 32.0554 61.8492 32.0554C59.4207 32.0548 57.4448 30.0768 57.4448 27.6449ZM58.827 27.6449C58.827 29.3141 60.183 30.6713 61.8492 30.6713C63.5161 30.6713 64.8714 29.3135 64.8714 27.6449C64.8714 25.9757 63.5155 24.6178 61.8492 24.6178C60.183 24.6178 58.827 25.9757 58.827 27.6449Z" fill="#006BDE"/>
<path d="M39.7583 44.4554C39.7583 42.0236 41.7342 40.0449 44.1627 40.0449C46.5912 40.0449 48.5671 42.0236 48.5671 44.4554C48.5671 46.8873 46.5912 48.866 44.1627 48.866C41.7335 48.866 39.7583 46.8873 39.7583 44.4554ZM41.1398 44.4554C41.1398 46.1247 42.4958 47.4819 44.1627 47.4819C45.8296 47.4819 47.1849 46.124 47.1849 44.4554C47.1849 42.7862 45.8289 41.4284 44.1627 41.4284C42.4958 41.4284 41.1398 42.7862 41.1398 44.4554Z" fill="#009CF8"/>
<path d="M30.6012 50.6441C30.983 50.6441 31.2919 50.3347 31.2919 49.9524V46.9017C31.2919 46.5194 30.9823 46.21 30.6012 46.21C30.22 46.21 29.9104 46.5194 29.9104 46.9017V49.9524C29.9104 50.3347 30.22 50.6441 30.6012 50.6441Z" fill="#006BDE"/>
<path d="M30.6012 55.984C30.983 55.984 31.2919 55.6746 31.2919 55.2923V52.2415C31.2919 51.8592 30.9823 51.5498 30.6012 51.5498C30.22 51.5498 29.9104 51.8592 29.9104 52.2415V55.2923C29.9104 55.6739 30.22 55.984 30.6012 55.984Z" fill="#006BDE"/>
<path d="M26.3248 51.7887H29.0616C29.4434 51.7887 29.7524 51.4787 29.7524 51.097C29.7524 50.7147 29.4428 50.4053 29.0616 50.4053H26.3248C25.9437 50.4053 25.634 50.7147 25.634 51.097C25.634 51.4787 25.9437 51.7887 26.3248 51.7887Z" fill="#006BDE"/>
<path d="M32.141 51.7887H34.8778C35.2596 51.7887 35.5686 51.4787 35.5686 51.097C35.5686 50.7147 35.2589 50.4053 34.8778 50.4053H32.141C31.7592 50.4053 31.4502 50.7147 31.4502 51.097C31.4502 51.4787 31.7598 51.7887 32.141 51.7887Z" fill="#006BDE"/>
<path d="M46.5204 27.192C46.9015 27.192 47.2111 26.8826 47.2111 26.5003V23.4495C47.2111 23.0672 46.9015 22.7578 46.5204 22.7578C46.1392 22.7578 45.8296 23.0672 45.8296 23.4495V26.5003C45.8296 26.8826 46.1386 27.192 46.5204 27.192Z" fill="#1C31B5"/>
<path d="M46.5204 32.5318C46.9015 32.5318 47.2111 32.2224 47.2111 31.8401V28.7894C47.2111 28.4071 46.9015 28.0977 46.5204 28.0977C46.1392 28.0977 45.8296 28.4077 45.8296 28.7894V31.8401C45.8296 32.2218 46.1386 32.5318 46.5204 32.5318Z" fill="#1C31B5"/>
<path d="M42.244 28.3366H44.9808C45.362 28.3366 45.6716 28.0272 45.6716 27.6449C45.6716 27.2625 45.362 26.9531 44.9808 26.9531H42.244C41.8622 26.9531 41.5532 27.2632 41.5532 27.6449C41.5532 28.0265 41.8622 28.3366 42.244 28.3366Z" fill="#1C31B5"/>
<path d="M48.0601 28.3366H50.797C51.1788 28.3366 51.4878 28.0272 51.4878 27.6449C51.4878 27.2625 51.1781 26.9531 50.797 26.9531H48.0601C47.6784 26.9531 47.3694 27.2632 47.3694 27.6449C47.3694 28.0265 47.6784 28.3366 48.0601 28.3366Z" fill="#1C31B5"/>
<path d="M178.229 27.9614C178.149 27.9699 178.066 27.9587 177.987 27.9252C177.148 27.5712 176.657 27.4056 176.652 27.4036C176.395 27.3176 176.256 27.0397 176.342 26.7822C176.428 26.5247 176.705 26.3861 176.962 26.4715C176.983 26.4787 177.49 26.6489 178.368 27.0194C178.617 27.1251 178.735 27.4128 178.629 27.6631C178.558 27.8346 178.401 27.943 178.229 27.9614Z" fill="#BBE2F2"/>
<path d="M203.228 54.3095C203.562 55.2009 203.875 56.12 204.157 57.0416C204.227 57.2696 204.449 57.4101 204.677 57.3858C204.708 57.3825 204.74 57.376 204.771 57.3668C205.03 57.2873 205.175 57.012 205.095 56.7532C204.807 55.8125 204.488 54.8744 204.147 53.9653C204.052 53.7117 203.771 53.5829 203.516 53.6775C203.262 53.7721 203.133 54.0553 203.228 54.3095Z" fill="#BBE2F2"/>
<path d="M204.921 59.8248C205.146 60.7477 205.349 61.6977 205.526 62.6489C205.573 62.9024 205.807 63.0745 206.059 63.0476C206.071 63.0463 206.084 63.0443 206.097 63.0424C206.363 62.9924 206.539 62.7362 206.49 62.4695C206.311 61.5006 206.104 60.5323 205.875 59.5916C205.81 59.3282 205.545 59.1666 205.282 59.2309C205.018 59.2953 204.858 59.5614 204.921 59.8248Z" fill="#BBE2F2"/>
<path d="M206.99 74.6587C207.234 74.6331 207.425 74.4288 207.429 74.1779C207.444 73.1925 207.437 72.2032 207.408 71.2382C207.4 70.9669 207.174 70.754 206.903 70.7619C206.628 70.7718 206.419 70.9965 206.427 71.2678C206.456 72.2177 206.462 73.1919 206.448 74.1628C206.444 74.4341 206.66 74.6574 206.931 74.6614C206.951 74.662 206.971 74.6607 206.99 74.6587Z" fill="#BBE2F2"/>
<path d="M206.396 64.9514C206.127 64.9862 205.938 65.2325 205.973 65.5019C206.031 65.9459 206.083 66.3946 206.13 66.8354C206.184 67.3439 206.231 67.8635 206.271 68.3785C206.292 68.6491 206.529 68.8508 206.799 68.8298C206.803 68.8291 206.807 68.8291 206.812 68.8285C207.075 68.8009 207.27 68.5677 207.25 68.3016C207.208 67.7781 207.16 67.2499 207.106 66.7323C207.059 66.2836 207.005 65.827 206.947 65.3751C206.912 65.1104 206.673 64.9218 206.409 64.9501C206.405 64.9507 206.4 64.9507 206.396 64.9514Z" fill="#BBE2F2"/>
<path d="M202.134 51.64C202.223 51.8391 202.428 51.9494 202.633 51.9277C202.683 51.9225 202.734 51.9093 202.782 51.8877C203.03 51.7767 203.141 51.4863 203.03 51.2386C202.63 50.3439 202.197 49.4518 201.743 48.588C201.617 48.3476 201.321 48.2556 201.081 48.3817C200.841 48.5078 200.749 48.8048 200.875 49.0452C201.319 49.8913 201.743 50.7637 202.134 51.64Z" fill="#BBE2F2"/>
<path d="M180.592 29.1464C181.435 29.5773 182.285 30.0464 183.119 30.541C183.214 30.5969 183.319 30.6179 183.42 30.6067C183.569 30.591 183.709 30.5075 183.792 30.3683C183.929 30.1351 183.853 29.8335 183.62 29.6956C182.768 29.1904 181.9 28.7115 181.04 28.2714C180.799 28.1485 180.503 28.2438 180.38 28.4855C180.256 28.7266 180.351 29.0222 180.592 29.1464Z" fill="#BBE2F2"/>
<path d="M187.903 33.7718C188.007 33.8513 188.132 33.8828 188.252 33.8697C188.381 33.8559 188.505 33.7909 188.59 33.6792C188.755 33.4637 188.714 33.155 188.498 32.9908C187.721 32.3969 186.917 31.8188 186.107 31.2716C185.882 31.1199 185.578 31.179 185.427 31.4043C185.275 31.629 185.334 31.9344 185.559 32.0862C186.353 32.6222 187.141 33.1898 187.903 33.7718Z" fill="#BBE2F2"/>
<path d="M196.145 41.8143C196.254 41.9503 196.42 42.0127 196.58 41.9956C196.67 41.9858 196.759 41.9516 196.835 41.8905C197.046 41.7211 197.081 41.4116 196.911 41.2001C196.302 40.4381 195.659 39.6833 195 38.9581C194.818 38.7571 194.508 38.7419 194.307 38.9246C194.107 39.1072 194.092 39.4179 194.275 39.6183C194.919 40.329 195.548 41.0681 196.145 41.8143Z" fill="#BBE2F2"/>
<path d="M192.271 37.5433C192.379 37.649 192.524 37.6944 192.665 37.6799C192.775 37.6681 192.881 37.6195 192.965 37.5341C193.153 37.3396 193.149 37.0289 192.955 36.8397C192.258 36.1598 191.527 35.4904 190.784 34.8486C190.579 34.6712 190.269 34.6949 190.093 34.8999C189.915 35.1055 189.938 35.4155 190.144 35.5922C190.871 36.2209 191.587 36.8772 192.271 37.5433Z" fill="#BBE2F2"/>
<path d="M199.454 46.5366C199.556 46.7041 199.742 46.7889 199.924 46.7692C199.994 46.7619 200.064 46.739 200.128 46.7002C200.359 46.559 200.433 46.2561 200.291 46.0249C199.782 45.1899 199.239 44.3603 198.678 43.5588C198.523 43.3368 198.217 43.2829 197.995 43.4386C197.773 43.5943 197.719 43.9011 197.875 44.1231C198.424 44.9075 198.955 45.7194 199.454 46.5366Z" fill="#BBE2F2"/>
<path d="M178.219 24.6005L180.366 16.6387L154.062 16.8646L178.219 24.6005Z" fill="#009CF8"/>
<path d="M154.062 16.8643L176.942 26.5229L177.003 26.5492L177.987 28.1816L178.219 24.6007L154.062 16.8643Z" fill="#006BDE"/>
<path d="M177.987 28.1813L175.855 27.8449L177.003 26.5488L177.987 28.1813Z" fill="#006BDE"/>
<path d="M174.124 25.3326L177.003 26.5478L171.074 33.2385L154.062 16.8643L174.124 25.3326Z" fill="#009CF8"/>
<path d="M299.172 234.067V234.548C299.172 237.316 296.93 239.561 294.164 239.561H34.4224C31.656 239.561 29.4158 237.316 29.4158 234.548V234.067C29.4158 231.299 31.656 229.054 34.4224 229.054H294.164C296.931 229.054 299.172 231.299 299.172 234.067Z" fill="#1C31B5"/>
<path d="M299.172 234.067V234.307H29.4158V234.067C29.4158 231.299 31.656 229.054 34.4224 229.054H294.164C296.931 229.054 299.172 231.299 299.172 234.067Z" fill="#006BDE"/>
<path d="M204.045 213.282H122.448C120.498 213.282 118.918 211.699 118.918 209.747V166.997C118.918 165.044 120.498 163.462 122.448 163.462H204.044C205.994 163.462 207.574 165.044 207.574 166.997V209.747C207.575 211.699 205.994 213.282 204.045 213.282Z" fill="#18315B"/>
<path d="M170.112 213.226H156.381V228.9H170.112V213.226Z" fill="#000B29"/>
<path d="M163.093 195.806C166.856 195.806 169.907 192.751 169.907 188.982C169.907 185.213 166.856 182.158 163.093 182.158C159.329 182.158 156.278 185.213 156.278 188.982C156.278 192.751 159.329 195.806 163.093 195.806Z" fill="#1D567E"/>
<path d="M180.734 228.899H145.318V227.704C145.318 225.293 147.27 223.338 149.677 223.338H176.375C178.782 223.338 180.734 225.292 180.734 227.704V228.899H180.734Z" fill="#18315B"/>
</svg>
