<svg width="209" height="50" viewBox="0 0 209 50" fill="none" xmlns="http://www.w3.org/2000/svg">
<line x1="50" y1="23.5" x2="159" y2="23.5" stroke="#05448E" stroke-width="3"/>
<circle cx="25" cy="25" r="25" fill="#05448E"/>
<path d="M21.3435 21.154V17.842H26.8875V31H23.1975V21.154H21.3435Z" fill="white"/>
<circle cx="184" cy="25" r="25" fill="#9E9A9A"/>
<path d="M178.97 28.174C180.134 27.262 181.088 26.476 181.832 25.816C182.576 25.156 183.2 24.478 183.704 23.782C184.208 23.074 184.46 22.402 184.46 21.766C184.46 21.382 184.37 21.082 184.19 20.866C184.022 20.65 183.77 20.542 183.434 20.542C183.086 20.542 182.816 20.692 182.624 20.992C182.432 21.28 182.342 21.706 182.354 22.27H178.934C178.97 21.202 179.204 20.32 179.636 19.624C180.068 18.916 180.632 18.4 181.328 18.076C182.024 17.74 182.798 17.572 183.65 17.572C185.126 17.572 186.224 17.938 186.944 18.67C187.664 19.402 188.024 20.35 188.024 21.514C188.024 22.762 187.604 23.932 186.764 25.024C185.936 26.116 184.898 27.094 183.65 27.958H188.15V30.82H178.97V28.174Z" fill="#05448E"/>
</svg>
