<?xml version="1.0" encoding="UTF-8"?>
<svg xmlns="http://www.w3.org/2000/svg" xmlns:xlink="http://www.w3.org/1999/xlink" width="75px" height="75px" viewBox="0 0 75 75" version="1.1">
<g id="surface1">
<path style=" stroke:none;fill-rule:nonzero;fill:rgb(1.960784%,26.666667%,55.686275%);fill-opacity:1;" d="M 75 34.5 C 75.765625 33.644531 75.765625 32.355469 75 31.5 C 54.128906 16.34375 25.792969 16.648438 5.25 32.25 C 5.050781 33.082031 5.34375 33.953125 6 34.5 C 6.855469 35.265625 8.144531 35.265625 9 34.5 C 27.824219 20.980469 53.175781 20.980469 72 34.5 Z M 75 34.5 "/>
<path style=" stroke:none;fill-rule:nonzero;fill:rgb(1.960784%,26.666667%,55.686275%);fill-opacity:1;" d="M 64.5 44.25 C 65.265625 43.394531 65.265625 42.105469 64.5 41.25 C 49.566406 31.71875 30.382812 32.011719 15.75 42 C 15.347656 42.695312 15.347656 43.554688 15.75 44.25 C 16.390625 45.257812 17.710938 45.585938 18.75 45 C 31.785156 36.683594 48.464844 36.683594 61.5 45 Z M 54.75 54.75 C 55.5 53.25 55.5 51.75 54 51 C 45.304688 46.464844 34.945312 46.464844 26.25 51 C 25.5 51.75 24.75 53.25 26.25 54.75 L 29.25 55.5 C 36.34375 52.011719 44.65625 52.011719 51.75 55.5 Z M 45 63.75 C 46.5 63 46.5 61.5 45 60.75 C 42.03125 58.835938 38.21875 58.835938 35.25 60.75 L 35.25 63.75 L 39 67.5 C 39.855469 68.265625 41.144531 68.265625 42 67.5 Z M 45 63.75 "/>
</g>
</svg>
